%TF.GenerationSoftware,KiCad,Pcbnew,9.0.5*%
%TF.CreationDate,2025-10-17T10:40:51+05:30*%
%TF.ProjectId,WVM,57564d2e-6b69-4636-9164-5f7063625858,rev?*%
%TF.SameCoordinates,Original*%
%TF.FileFunction,Copper,L2,Bot*%
%TF.FilePolarity,Positive*%
%FSLAX46Y46*%
G04 Gerber Fmt 4.6, Leading zero omitted, Abs format (unit mm)*
G04 Created by KiCad (PCBNEW 9.0.5) date 2025-10-17 10:40:51*
%MOMM*%
%LPD*%
G01*
G04 APERTURE LIST*
G04 Aperture macros list*
%AMRoundRect*
0 Rectangle with rounded corners*
0 $1 Rounding radius*
0 $2 $3 $4 $5 $6 $7 $8 $9 X,Y pos of 4 corners*
0 Add a 4 corners polygon primitive as box body*
4,1,4,$2,$3,$4,$5,$6,$7,$8,$9,$2,$3,0*
0 Add four circle primitives for the rounded corners*
1,1,$1+$1,$2,$3*
1,1,$1+$1,$4,$5*
1,1,$1+$1,$6,$7*
1,1,$1+$1,$8,$9*
0 Add four rect primitives between the rounded corners*
20,1,$1+$1,$2,$3,$4,$5,0*
20,1,$1+$1,$4,$5,$6,$7,0*
20,1,$1+$1,$6,$7,$8,$9,0*
20,1,$1+$1,$8,$9,$2,$3,0*%
G04 Aperture macros list end*
%TA.AperFunction,ComponentPad*%
%ADD10C,0.700000*%
%TD*%
%TA.AperFunction,ComponentPad*%
%ADD11C,4.400000*%
%TD*%
%TA.AperFunction,HeatsinkPad*%
%ADD12C,0.500000*%
%TD*%
%TA.AperFunction,HeatsinkPad*%
%ADD13R,1.900000X2.900000*%
%TD*%
%TA.AperFunction,ComponentPad*%
%ADD14O,1.000000X1.800000*%
%TD*%
%TA.AperFunction,ComponentPad*%
%ADD15O,1.000000X2.200000*%
%TD*%
%TA.AperFunction,ComponentPad*%
%ADD16R,0.850000X0.850000*%
%TD*%
%TA.AperFunction,ComponentPad*%
%ADD17C,0.850000*%
%TD*%
%TA.AperFunction,SMDPad,CuDef*%
%ADD18RoundRect,0.300000X0.700000X1.700000X-0.700000X1.700000X-0.700000X-1.700000X0.700000X-1.700000X0*%
%TD*%
%TA.AperFunction,ViaPad*%
%ADD19C,0.100000*%
%TD*%
%TA.AperFunction,ViaPad*%
%ADD20C,0.300000*%
%TD*%
%TA.AperFunction,ViaPad*%
%ADD21C,0.600000*%
%TD*%
%TA.AperFunction,ViaPad*%
%ADD22C,0.400000*%
%TD*%
%TA.AperFunction,Conductor*%
%ADD23C,0.100000*%
%TD*%
%TA.AperFunction,Conductor*%
%ADD24C,0.200000*%
%TD*%
G04 APERTURE END LIST*
D10*
%TO.P,H4,1*%
%TO.N,N/C*%
X216837100Y-139022500D03*
X217320374Y-137855774D03*
X217320374Y-140189226D03*
X218487100Y-137372500D03*
D11*
X218487100Y-139022500D03*
D10*
X218487100Y-140672500D03*
X219653826Y-137855774D03*
X219653826Y-140189226D03*
X220137100Y-139022500D03*
%TD*%
D12*
%TO.P,U5,9,EPAD*%
%TO.N,GND*%
X219500000Y-115900000D03*
X219500000Y-117100000D03*
X219500000Y-118300000D03*
D13*
X220200000Y-117100000D03*
D12*
X220900000Y-115900000D03*
X220900000Y-117100000D03*
X220900000Y-118300000D03*
%TD*%
D14*
%TO.P,J1,SH1,SHIELD*%
%TO.N,GND*%
X225860000Y-130500000D03*
%TO.P,J1,SH2*%
%TO.N,N/C*%
X234500000Y-130500000D03*
D15*
%TO.P,J1,SH3*%
X225860000Y-134500000D03*
%TO.P,J1,SH4*%
X234500000Y-134500000D03*
%TD*%
D16*
%TO.P,J5,1,Pin_1*%
%TO.N,RX*%
X237750000Y-129750000D03*
D17*
%TO.P,J5,2,Pin_2*%
%TO.N,TX*%
X236750000Y-129750000D03*
%TD*%
D10*
%TO.P,H2,1*%
%TO.N,N/C*%
X235183274Y-111333274D03*
X235666548Y-110166548D03*
X235666548Y-112500000D03*
X236833274Y-109683274D03*
D11*
X236833274Y-111333274D03*
D10*
X236833274Y-112983274D03*
X238000000Y-110166548D03*
X238000000Y-112500000D03*
X238483274Y-111333274D03*
%TD*%
D16*
%TO.P,J4,1,Pin_1*%
%TO.N,3V3*%
X237750000Y-131750000D03*
D17*
%TO.P,J4,2,Pin_2*%
%TO.N,GND*%
X236750000Y-131750000D03*
%TD*%
D10*
%TO.P,H1,1*%
%TO.N,N/C*%
X235350000Y-138850000D03*
X235833274Y-137683274D03*
X235833274Y-140016726D03*
X237000000Y-137200000D03*
D11*
X237000000Y-138850000D03*
D10*
X237000000Y-140500000D03*
X238166726Y-137683274D03*
X238166726Y-140016726D03*
X238650000Y-138850000D03*
%TD*%
%TO.P,H3,1*%
%TO.N,N/C*%
X216860000Y-111110000D03*
X217343274Y-109943274D03*
X217343274Y-112276726D03*
X218510000Y-109460000D03*
D11*
X218510000Y-111110000D03*
D10*
X218510000Y-112760000D03*
X219676726Y-109943274D03*
X219676726Y-112276726D03*
X220160000Y-111110000D03*
%TD*%
D16*
%TO.P,J6,1,Pin_1*%
%TO.N,EN*%
X237750000Y-127750000D03*
D17*
%TO.P,J6,2,Pin_2*%
%TO.N,BOOT*%
X236750000Y-127750000D03*
%TD*%
D18*
%TO.P,J2,1,Pin_1*%
%TO.N,+BAT*%
X228430000Y-134342500D03*
%TO.P,J2,2,Pin_2*%
%TO.N,GND*%
X231930000Y-134342500D03*
%TD*%
D19*
%TO.N,3V3*%
X221280000Y-114030000D03*
X230242145Y-111257855D03*
D20*
X232500000Y-111540000D03*
X222410000Y-121910000D03*
D21*
X217000000Y-126250000D03*
D20*
%TO.N,GND*%
X222970000Y-123910000D03*
%TO.N,3V3*%
X222970000Y-122950000D03*
X237750000Y-131750000D03*
%TO.N,GND*%
X235500000Y-117200000D03*
X237000000Y-116100000D03*
X217970000Y-123910000D03*
X235500000Y-120500000D03*
D19*
X231000000Y-112999999D03*
D20*
X225600000Y-116100000D03*
X238500000Y-123800000D03*
D19*
X229289701Y-111793699D03*
D20*
X226700000Y-123800000D03*
X232500000Y-112500000D03*
X225860000Y-130500000D03*
X231100000Y-119950000D03*
X230000000Y-121050000D03*
X218300000Y-128000000D03*
X235500000Y-123800000D03*
X226700000Y-117200000D03*
D19*
X231000000Y-112499999D03*
D20*
X235500000Y-118300000D03*
X230000000Y-119950000D03*
X217270000Y-121880000D03*
D21*
X222540000Y-113000000D03*
D20*
X237000000Y-124900000D03*
D22*
X238500000Y-116100000D03*
D20*
X225600000Y-124900000D03*
D21*
X217725000Y-117735000D03*
D20*
X238500000Y-117200000D03*
D19*
X220269950Y-121200000D03*
D20*
X218470000Y-121910000D03*
D19*
X220670000Y-121200000D03*
D20*
X223500000Y-134960000D03*
D19*
X229789700Y-111793699D03*
D20*
X223200000Y-127040000D03*
X223670000Y-121880000D03*
X218300000Y-134500000D03*
D21*
X217725000Y-115195000D03*
D20*
X231100000Y-121050000D03*
X231930000Y-134342500D03*
X236750000Y-131750000D03*
X226980000Y-129925000D03*
X235500000Y-122700000D03*
X238500000Y-124900000D03*
D21*
X221430000Y-112070000D03*
D20*
%TO.N,RESET*%
X223500000Y-134000000D03*
X234400000Y-122700000D03*
X225250000Y-128250000D03*
%TO.N,GPIO1*%
X230000000Y-117200000D03*
X223200000Y-128000000D03*
%TO.N,EN*%
X233300000Y-117200000D03*
X237750000Y-127750000D03*
%TO.N,BOOT*%
X231100000Y-118300000D03*
X236750000Y-127750000D03*
%TO.N,Net-(U5-~{STDBY})*%
X222675000Y-117735000D03*
X218080000Y-130700000D03*
%TO.N,Net-(U5-~{CHRG})*%
X217990000Y-132000000D03*
X222675000Y-116465000D03*
%TO.N,Net-(U5-PROG)*%
X217725000Y-116465000D03*
X221430000Y-113090000D03*
%TO.N,Net-(U4-FB)*%
X218470000Y-120890000D03*
X222470000Y-120890000D03*
%TO.N,CLK*%
X226700000Y-124900000D03*
D19*
X229750000Y-113660000D03*
D20*
%TO.N,CS*%
X226700000Y-122700000D03*
D19*
X229289701Y-113706299D03*
D20*
%TO.N,RX*%
X237750000Y-129750000D03*
X232200000Y-116100000D03*
D22*
X237750000Y-126250000D03*
D19*
%TO.N,MISO*%
X231000000Y-113500000D03*
D20*
X227800000Y-124900000D03*
%TO.N,TX*%
X232200000Y-117200000D03*
X236750000Y-129750000D03*
%TO.N,MOSI*%
X227800000Y-123800000D03*
D19*
X230289699Y-113706299D03*
D20*
%TO.N,INT2*%
X230000000Y-118300000D03*
D19*
X228579400Y-112499999D03*
%TD*%
D23*
%TO.N,3V3*%
X221280000Y-114030000D02*
X221250000Y-114000000D01*
X230242145Y-111257855D02*
X230524290Y-111540000D01*
X230524290Y-111540000D02*
X232500000Y-111540000D01*
%TO.N,GND*%
X231000000Y-112999999D02*
X231000000Y-112499999D01*
X231270067Y-111847999D02*
X228309333Y-111847999D01*
%TO.N,3V3*%
X221401000Y-114151000D02*
X221280000Y-114030000D01*
X218019000Y-120703189D02*
X219921189Y-118801000D01*
X218019000Y-122096811D02*
X218019000Y-120703189D01*
X219921189Y-118801000D02*
X221401000Y-118801000D01*
X218283189Y-122361000D02*
X218019000Y-122096811D01*
X221401000Y-118801000D02*
X221401000Y-114151000D01*
X221959000Y-122361000D02*
X218283189Y-122361000D01*
X222410000Y-121910000D02*
X221959000Y-122361000D01*
%TO.N,GND*%
X237563189Y-126701000D02*
X237000000Y-126137811D01*
X237000000Y-126137811D02*
X237000000Y-124900000D01*
X237936811Y-126701000D02*
X237563189Y-126701000D01*
X238949000Y-127713189D02*
X237936811Y-126701000D01*
X238949000Y-133000000D02*
X238949000Y-127713189D01*
X235355500Y-136593500D02*
X238949000Y-133000000D01*
X221250000Y-132387811D02*
X225455689Y-136593500D01*
X221250000Y-128886511D02*
X221250000Y-132387811D01*
X224848000Y-115309332D02*
X224848000Y-125288511D01*
X228309333Y-111847999D02*
X224848000Y-115309332D01*
X231652000Y-112229932D02*
X231270067Y-111847999D01*
X231652000Y-117289811D02*
X231652000Y-112229932D01*
X235500000Y-121137811D02*
X231652000Y-117289811D01*
X225455689Y-136593500D02*
X235355500Y-136593500D01*
X235500000Y-123800000D02*
X235500000Y-121137811D01*
%TO.N,3V3*%
X220300000Y-122950000D02*
X222970000Y-122950000D01*
X217000000Y-126250000D02*
X220300000Y-122950000D01*
D24*
%TO.N,RESET*%
X234400000Y-127350000D02*
X233500000Y-128250000D01*
X223500000Y-134000000D02*
X223500000Y-130000000D01*
X233500000Y-128250000D02*
X225250000Y-128250000D01*
X223500000Y-130000000D02*
X225250000Y-128250000D01*
X234400000Y-122700000D02*
X234400000Y-127350000D01*
D23*
%TO.N,GPIO1*%
X227151000Y-124849000D02*
X227151000Y-125099000D01*
X227151000Y-125099000D02*
X224250000Y-128000000D01*
X228086838Y-124292450D02*
X227707550Y-124292450D01*
X224250000Y-128000000D02*
X223200000Y-128000000D01*
X230451000Y-121928288D02*
X228086838Y-124292450D01*
X230000000Y-117200000D02*
X230451000Y-117651000D01*
X227707550Y-124292450D02*
X227151000Y-124849000D01*
X230451000Y-117651000D02*
X230451000Y-121928288D01*
D24*
%TO.N,EN*%
X236500000Y-117250000D02*
X236500000Y-126250000D01*
X236000000Y-114750000D02*
X235750000Y-114750000D01*
X237750000Y-127500000D02*
X237750000Y-127750000D01*
X236500000Y-126250000D02*
X237750000Y-127500000D01*
X235750000Y-114750000D02*
X233300000Y-117200000D01*
X236000000Y-116750000D02*
X236000000Y-114750000D01*
X236000000Y-116750000D02*
X236500000Y-117250000D01*
%TO.N,BOOT*%
X234901000Y-122101000D02*
X234901000Y-128927720D01*
X236449280Y-130476000D02*
X238476000Y-130476000D01*
X238476000Y-129024000D02*
X236591100Y-129024000D01*
X234901000Y-128927720D02*
X236449280Y-130476000D01*
X231100000Y-118300000D02*
X234901000Y-122101000D01*
X236449280Y-128050720D02*
X236750000Y-127750000D01*
X238476000Y-130476000D02*
X238476000Y-129024000D01*
X236449280Y-128882180D02*
X236449280Y-128050720D01*
X236591100Y-129024000D02*
X236449280Y-128882180D01*
%TO.N,Net-(U5-~{STDBY})*%
X222974999Y-118034999D02*
X222675000Y-117735000D01*
X223500000Y-125280000D02*
X223500000Y-122418521D01*
X222974999Y-121893520D02*
X222974999Y-118034999D01*
X223500000Y-122418521D02*
X222974999Y-121893520D01*
X218080000Y-130700000D02*
X223500000Y-125280000D01*
%TO.N,Net-(U5-~{CHRG})*%
X224171000Y-125329000D02*
X217990000Y-131510000D01*
X224171000Y-117961000D02*
X224171000Y-125329000D01*
X222675000Y-116465000D02*
X224171000Y-117961000D01*
X217990000Y-131510000D02*
X217990000Y-132000000D01*
%TO.N,Net-(U5-PROG)*%
X221100000Y-113090000D02*
X221430000Y-113090000D01*
X217725000Y-116465000D02*
X221100000Y-113090000D01*
%TO.N,Net-(U4-FB)*%
X221759000Y-121601000D02*
X222470000Y-120890000D01*
X219181000Y-121601000D02*
X221759000Y-121601000D01*
X218470000Y-120890000D02*
X219181000Y-121601000D01*
%TO.N,CLK*%
X229455801Y-113305299D02*
X229756150Y-113605648D01*
X226199000Y-124399000D02*
X226199000Y-116229900D01*
X226199000Y-116229900D02*
X229123601Y-113305299D01*
X229756150Y-113605648D02*
X229756150Y-113672748D01*
X229123601Y-113305299D02*
X229455801Y-113305299D01*
X226700000Y-124900000D02*
X226199000Y-124399000D01*
%TO.N,CS*%
X227250000Y-116000000D02*
X229289701Y-113960299D01*
X226700000Y-122700000D02*
X226700000Y-117800000D01*
X226858521Y-117750000D02*
X227250000Y-117358521D01*
X229289701Y-113960299D02*
X229289701Y-113706299D01*
X226750000Y-117750000D02*
X226858521Y-117750000D01*
X227250000Y-117358521D02*
X227250000Y-116000000D01*
X226700000Y-117800000D02*
X226750000Y-117750000D01*
%TO.N,RX*%
X236467726Y-113967726D02*
X236467726Y-114750000D01*
X236467726Y-114750000D02*
X236467726Y-114776247D01*
X234332274Y-113967726D02*
X236467726Y-113967726D01*
X232200000Y-116100000D02*
X234332274Y-113967726D01*
X237750000Y-126250000D02*
X237750000Y-116032274D01*
X237750000Y-116032274D02*
X236467726Y-114750000D01*
D23*
%TO.N,MISO*%
X227800000Y-124900000D02*
X224249000Y-128451000D01*
X231351000Y-112354610D02*
X231351000Y-113149000D01*
X228434011Y-112148999D02*
X231145389Y-112148999D01*
X231145389Y-112148999D02*
X231351000Y-112354610D01*
X225149000Y-115434010D02*
X228434011Y-112148999D01*
X223013189Y-128451000D02*
X222749000Y-128186811D01*
X224249000Y-128451000D02*
X223013189Y-128451000D01*
X222749000Y-128186811D02*
X222749000Y-127813189D01*
X222749000Y-127813189D02*
X223013189Y-127549000D01*
X231351000Y-113149000D02*
X231000000Y-113500000D01*
X225149000Y-125786811D02*
X225149000Y-115434010D01*
X223386811Y-127549000D02*
X225149000Y-125786811D01*
X223013189Y-127549000D02*
X223386811Y-127549000D01*
D24*
%TO.N,TX*%
X236001000Y-124751000D02*
X236001000Y-124750000D01*
X236001000Y-120251000D02*
X233451000Y-117701000D01*
X232701000Y-117701000D02*
X232200000Y-117200000D01*
X236750000Y-129750000D02*
X236024000Y-129024000D01*
X236001000Y-124750000D02*
X236001000Y-120251000D01*
X233451000Y-117701000D02*
X232701000Y-117701000D01*
X236024000Y-124773000D02*
X236001000Y-124750000D01*
X236024000Y-129024000D02*
X236024000Y-124773000D01*
%TO.N,MOSI*%
X227800000Y-123050000D02*
X227250000Y-122500000D01*
X228500000Y-117000000D02*
X228500000Y-115495998D01*
X227800000Y-123800000D02*
X227941450Y-123941450D01*
X227250000Y-118250000D02*
X228500000Y-117000000D01*
X228500000Y-115495998D02*
X230289699Y-113706299D01*
X227800000Y-123800000D02*
X227800000Y-123050000D01*
X227250000Y-122500000D02*
X227250000Y-118250000D01*
D23*
%TO.N,INT2*%
X229549000Y-115954612D02*
X229549000Y-117849000D01*
X229549000Y-117849000D02*
X230000000Y-118300000D01*
X229579787Y-112499999D02*
X230640699Y-113560911D01*
X230640699Y-114862913D02*
X229549000Y-115954612D01*
X230640699Y-113560911D02*
X230640699Y-114862913D01*
X228579400Y-112499999D02*
X229579787Y-112499999D01*
%TD*%
%TA.AperFunction,Conductor*%
%TO.N,GND*%
G36*
X222603542Y-123505827D02*
G01*
X222622451Y-123506165D01*
X222650671Y-123519666D01*
X222652438Y-123520185D01*
X222654252Y-123521373D01*
X222661873Y-123526465D01*
X222780256Y-123575501D01*
X222799691Y-123579367D01*
X222861601Y-123611751D01*
X222896176Y-123672466D01*
X222899500Y-123700984D01*
X222899500Y-124979902D01*
X222879815Y-125046941D01*
X222863181Y-125067583D01*
X217849671Y-130081092D01*
X217809446Y-130107971D01*
X217771873Y-130123535D01*
X217665328Y-130194725D01*
X217574726Y-130285327D01*
X217574723Y-130285331D01*
X217503538Y-130391866D01*
X217503533Y-130391875D01*
X217454499Y-130510255D01*
X217454497Y-130510261D01*
X217429500Y-130635928D01*
X217429500Y-130635931D01*
X217429500Y-130764069D01*
X217429500Y-130764071D01*
X217429499Y-130764071D01*
X217454497Y-130889738D01*
X217454499Y-130889744D01*
X217503533Y-131008124D01*
X217503540Y-131008136D01*
X217505130Y-131010516D01*
X217505579Y-131011951D01*
X217506408Y-131013502D01*
X217506113Y-131013659D01*
X217509913Y-131025797D01*
X217519203Y-131038841D01*
X217520138Y-131058457D01*
X217526004Y-131077195D01*
X217521805Y-131093440D01*
X217522530Y-131108631D01*
X217509413Y-131141397D01*
X217487384Y-131179556D01*
X217486828Y-131180519D01*
X217475581Y-131200000D01*
X217431051Y-131277128D01*
X217430423Y-131278215D01*
X217389499Y-131430943D01*
X217389499Y-131430945D01*
X217389499Y-131599046D01*
X217389500Y-131599059D01*
X217389500Y-131725233D01*
X217380061Y-131772685D01*
X217364500Y-131810251D01*
X217364497Y-131810261D01*
X217339500Y-131935928D01*
X217339500Y-131935929D01*
X217339500Y-131935931D01*
X217339500Y-132064069D01*
X217339500Y-132064071D01*
X217339499Y-132064071D01*
X217364497Y-132189738D01*
X217364499Y-132189744D01*
X217413533Y-132308124D01*
X217413538Y-132308133D01*
X217484723Y-132414668D01*
X217484726Y-132414672D01*
X217575327Y-132505273D01*
X217575331Y-132505276D01*
X217681866Y-132576461D01*
X217681872Y-132576464D01*
X217681873Y-132576465D01*
X217800256Y-132625501D01*
X217800260Y-132625501D01*
X217800261Y-132625502D01*
X217925928Y-132650500D01*
X217925931Y-132650500D01*
X218054071Y-132650500D01*
X218140557Y-132633296D01*
X218179744Y-132625501D01*
X218298127Y-132576465D01*
X218404669Y-132505276D01*
X218495276Y-132414669D01*
X218566465Y-132308127D01*
X218615501Y-132189744D01*
X218640500Y-132064069D01*
X218640500Y-131935931D01*
X218640499Y-131935928D01*
X218628551Y-131875862D01*
X218615735Y-131811433D01*
X218621962Y-131741844D01*
X218649669Y-131699564D01*
X222023694Y-128325540D01*
X222085015Y-128292057D01*
X222154707Y-128297041D01*
X222210640Y-128338913D01*
X222231147Y-128381126D01*
X222236016Y-128399296D01*
X222308490Y-128524826D01*
X222675175Y-128891510D01*
X222741553Y-128929833D01*
X222800704Y-128963984D01*
X222940714Y-129001500D01*
X222940715Y-129001500D01*
X223085663Y-129001500D01*
X223349903Y-129001500D01*
X223416942Y-129021185D01*
X223462697Y-129073989D01*
X223472641Y-129143147D01*
X223443616Y-129206703D01*
X223437589Y-129213175D01*
X223188550Y-129462214D01*
X223131286Y-129519478D01*
X223019481Y-129631282D01*
X223019479Y-129631284D01*
X222997303Y-129669695D01*
X222987930Y-129685931D01*
X222940423Y-129768215D01*
X222899499Y-129920943D01*
X222899499Y-129920945D01*
X222899499Y-130089046D01*
X222899500Y-130089059D01*
X222899500Y-133725233D01*
X222890061Y-133772685D01*
X222874500Y-133810251D01*
X222874497Y-133810261D01*
X222849500Y-133935928D01*
X222849500Y-133935931D01*
X222849500Y-134064069D01*
X222849500Y-134064071D01*
X222849499Y-134064071D01*
X222874497Y-134189738D01*
X222874499Y-134189744D01*
X222923533Y-134308124D01*
X222923538Y-134308133D01*
X222994723Y-134414668D01*
X222994726Y-134414672D01*
X223085327Y-134505273D01*
X223085331Y-134505276D01*
X223191866Y-134576461D01*
X223191872Y-134576464D01*
X223191873Y-134576465D01*
X223310256Y-134625501D01*
X223310260Y-134625501D01*
X223310261Y-134625502D01*
X223435928Y-134650500D01*
X223435931Y-134650500D01*
X223564071Y-134650500D01*
X223648615Y-134633682D01*
X223689744Y-134625501D01*
X223808127Y-134576465D01*
X223914669Y-134505276D01*
X224005276Y-134414669D01*
X224076465Y-134308127D01*
X224125501Y-134189744D01*
X224150500Y-134064069D01*
X224150500Y-133935931D01*
X224150500Y-133935928D01*
X224129040Y-133828047D01*
X224129039Y-133828046D01*
X224125501Y-133810256D01*
X224108584Y-133769415D01*
X224107421Y-133766081D01*
X224107015Y-133757986D01*
X224100500Y-133725233D01*
X224100500Y-130300097D01*
X224120185Y-130233058D01*
X224136819Y-130212416D01*
X224365031Y-129984204D01*
X224710422Y-129638812D01*
X224771743Y-129605329D01*
X224841434Y-129610313D01*
X224897368Y-129652184D01*
X224921785Y-129717649D01*
X224912663Y-129773946D01*
X224898429Y-129808310D01*
X224898427Y-129808318D01*
X224860000Y-130001504D01*
X224860000Y-130250000D01*
X225560000Y-130250000D01*
X225560000Y-130750000D01*
X224860000Y-130750000D01*
X224860000Y-130998495D01*
X224898427Y-131191681D01*
X224898430Y-131191693D01*
X224973807Y-131373671D01*
X224973814Y-131373684D01*
X225083248Y-131537462D01*
X225083251Y-131537466D01*
X225222533Y-131676748D01*
X225222537Y-131676751D01*
X225386315Y-131786185D01*
X225386328Y-131786192D01*
X225568308Y-131861569D01*
X225610000Y-131869862D01*
X225610000Y-131066988D01*
X225619940Y-131084205D01*
X225675795Y-131140060D01*
X225744204Y-131179556D01*
X225820504Y-131200000D01*
X225899496Y-131200000D01*
X225975796Y-131179556D01*
X226044205Y-131140060D01*
X226100060Y-131084205D01*
X226110000Y-131066988D01*
X226110000Y-131869862D01*
X226151690Y-131861569D01*
X226151692Y-131861569D01*
X226333671Y-131786192D01*
X226333684Y-131786185D01*
X226497462Y-131676751D01*
X226497466Y-131676748D01*
X226636748Y-131537466D01*
X226636751Y-131537462D01*
X226746185Y-131373684D01*
X226746192Y-131373671D01*
X226821569Y-131191693D01*
X226821572Y-131191681D01*
X226859999Y-130998495D01*
X226860000Y-130998492D01*
X226860000Y-130750000D01*
X226160000Y-130750000D01*
X226160000Y-130250000D01*
X226860000Y-130250000D01*
X226860000Y-130001508D01*
X226859999Y-130001504D01*
X226821572Y-129808318D01*
X226821569Y-129808306D01*
X226746192Y-129626328D01*
X226746185Y-129626315D01*
X226636751Y-129462537D01*
X226636748Y-129462533D01*
X226497466Y-129323251D01*
X226497462Y-129323248D01*
X226333684Y-129213814D01*
X226333671Y-129213807D01*
X226151691Y-129138429D01*
X226151683Y-129138427D01*
X226110000Y-129130135D01*
X226110000Y-129933011D01*
X226100060Y-129915795D01*
X226044205Y-129859940D01*
X225975796Y-129820444D01*
X225899496Y-129800000D01*
X225820504Y-129800000D01*
X225744204Y-129820444D01*
X225675795Y-129859940D01*
X225619940Y-129915795D01*
X225610000Y-129933011D01*
X225610000Y-129179884D01*
X225469918Y-129160988D01*
X225467311Y-129159825D01*
X225464476Y-129160130D01*
X225435609Y-129145679D01*
X225406112Y-129132518D01*
X225404548Y-129130130D01*
X225401998Y-129128854D01*
X225385521Y-129101083D01*
X225367827Y-129074071D01*
X225367802Y-129071219D01*
X225366346Y-129068765D01*
X225367499Y-129036486D01*
X225367218Y-129004204D01*
X225368739Y-129001791D01*
X225368841Y-128998940D01*
X225398810Y-128950424D01*
X225462418Y-128886816D01*
X225523740Y-128853334D01*
X225550097Y-128850500D01*
X233413331Y-128850500D01*
X233413347Y-128850501D01*
X233420943Y-128850501D01*
X233579054Y-128850501D01*
X233579057Y-128850501D01*
X233731785Y-128809577D01*
X233781904Y-128780639D01*
X233868716Y-128730520D01*
X233980520Y-128618716D01*
X233980521Y-128618713D01*
X234088821Y-128510412D01*
X234150143Y-128476930D01*
X234219834Y-128481914D01*
X234275767Y-128523786D01*
X234300184Y-128589251D01*
X234300500Y-128598096D01*
X234300500Y-128841050D01*
X234300499Y-128841068D01*
X234300499Y-129014905D01*
X234297767Y-129014905D01*
X234289049Y-129070731D01*
X234242658Y-129122977D01*
X234212889Y-129136516D01*
X234208160Y-129137950D01*
X234026092Y-129213364D01*
X234026079Y-129213371D01*
X233862218Y-129322860D01*
X233862214Y-129322863D01*
X233722863Y-129462214D01*
X233722860Y-129462218D01*
X233613371Y-129626079D01*
X233613364Y-129626092D01*
X233537950Y-129808160D01*
X233537947Y-129808170D01*
X233499500Y-130001456D01*
X233499500Y-130001459D01*
X233499500Y-130998541D01*
X233499500Y-130998543D01*
X233499499Y-130998543D01*
X233537947Y-131191829D01*
X233537950Y-131191839D01*
X233613364Y-131373907D01*
X233613371Y-131373920D01*
X233722860Y-131537781D01*
X233722863Y-131537785D01*
X233862214Y-131677136D01*
X233862218Y-131677139D01*
X234026079Y-131786628D01*
X234026092Y-131786635D01*
X234196287Y-131857131D01*
X234208165Y-131862051D01*
X234208169Y-131862051D01*
X234208170Y-131862052D01*
X234401456Y-131900500D01*
X234401459Y-131900500D01*
X234598543Y-131900500D01*
X234752567Y-131869862D01*
X234791835Y-131862051D01*
X234973914Y-131786632D01*
X235137782Y-131677139D01*
X235156031Y-131658890D01*
X235825000Y-131658890D01*
X235825000Y-131841109D01*
X235860545Y-132019805D01*
X235860548Y-132019817D01*
X235930271Y-132188145D01*
X235941498Y-132204947D01*
X236396446Y-131750000D01*
X236396446Y-131749999D01*
X235941498Y-131295050D01*
X235930274Y-131311848D01*
X235860547Y-131480186D01*
X235860545Y-131480194D01*
X235825000Y-131658890D01*
X235156031Y-131658890D01*
X235190785Y-131624136D01*
X235249800Y-131565122D01*
X235277136Y-131537785D01*
X235277139Y-131537782D01*
X235386632Y-131373914D01*
X235462051Y-131191835D01*
X235477768Y-131112820D01*
X235500500Y-130998543D01*
X235500500Y-130675817D01*
X235520185Y-130608778D01*
X235572989Y-130563023D01*
X235642147Y-130553079D01*
X235705703Y-130582104D01*
X235712175Y-130588131D01*
X236080564Y-130956520D01*
X236080566Y-130956521D01*
X236080570Y-130956524D01*
X236183234Y-131015796D01*
X236217496Y-131035577D01*
X236370223Y-131076501D01*
X236370225Y-131076501D01*
X236378692Y-131076501D01*
X236445731Y-131096186D01*
X236466373Y-131112820D01*
X236788181Y-131434627D01*
X236802884Y-131461554D01*
X236819477Y-131487373D01*
X236820368Y-131493573D01*
X236821666Y-131495950D01*
X236823144Y-131509699D01*
X236799728Y-131500000D01*
X236700272Y-131500000D01*
X236608386Y-131538060D01*
X236538060Y-131608386D01*
X236500000Y-131700272D01*
X236500000Y-131799728D01*
X236538060Y-131891614D01*
X236608386Y-131961940D01*
X236700272Y-132000000D01*
X236799728Y-132000000D01*
X236820472Y-131991407D01*
X236804815Y-132044729D01*
X236788181Y-132065371D01*
X236295050Y-132558500D01*
X236311849Y-132569725D01*
X236311855Y-132569728D01*
X236480182Y-132639451D01*
X236480194Y-132639454D01*
X236658890Y-132674999D01*
X236658894Y-132675000D01*
X236841106Y-132675000D01*
X236841109Y-132674999D01*
X237019805Y-132639454D01*
X237019806Y-132639454D01*
X237030755Y-132634919D01*
X237100224Y-132627447D01*
X237121538Y-132633293D01*
X237217517Y-132669091D01*
X237277127Y-132675500D01*
X238222872Y-132675499D01*
X238282483Y-132669091D01*
X238417331Y-132618796D01*
X238532546Y-132532546D01*
X238618796Y-132417331D01*
X238669091Y-132282483D01*
X238675500Y-132222873D01*
X238675499Y-131277128D01*
X238669091Y-131217517D01*
X238659514Y-131191839D01*
X238656766Y-131184471D01*
X238651781Y-131114780D01*
X238685265Y-131053456D01*
X238710941Y-131033754D01*
X238813503Y-130974540D01*
X238881401Y-130958069D01*
X238947428Y-130980922D01*
X238990618Y-131035844D01*
X238999500Y-131081929D01*
X238999500Y-136732990D01*
X238979815Y-136800029D01*
X238927011Y-136845784D01*
X238857853Y-136855728D01*
X238798187Y-136829937D01*
X238664599Y-136723405D01*
X238565164Y-136644108D01*
X238308341Y-136482735D01*
X238308338Y-136482733D01*
X238035068Y-136351133D01*
X237748783Y-136250957D01*
X237748771Y-136250953D01*
X237520556Y-136198864D01*
X237453063Y-136183460D01*
X237453060Y-136183459D01*
X237453048Y-136183457D01*
X237151663Y-136149500D01*
X237151657Y-136149500D01*
X236848343Y-136149500D01*
X236848336Y-136149500D01*
X236546951Y-136183457D01*
X236546937Y-136183460D01*
X236251228Y-136250953D01*
X236251216Y-136250957D01*
X235964931Y-136351133D01*
X235691661Y-136482733D01*
X235434837Y-136644107D01*
X235197696Y-136833220D01*
X234983220Y-137047696D01*
X234794107Y-137284837D01*
X234632733Y-137541661D01*
X234501133Y-137814931D01*
X234400957Y-138101216D01*
X234400953Y-138101228D01*
X234333460Y-138396937D01*
X234333457Y-138396951D01*
X234299500Y-138698336D01*
X234299500Y-139001663D01*
X234333457Y-139303048D01*
X234333460Y-139303062D01*
X234400953Y-139598771D01*
X234400957Y-139598783D01*
X234501133Y-139885068D01*
X234632733Y-140158338D01*
X234632735Y-140158341D01*
X234794108Y-140415164D01*
X234885146Y-140529322D01*
X234983220Y-140652303D01*
X235117472Y-140786555D01*
X235150957Y-140847878D01*
X235145973Y-140917570D01*
X235104101Y-140973503D01*
X235038637Y-140997920D01*
X235029791Y-140998236D01*
X220623060Y-140998236D01*
X220556021Y-140978551D01*
X220510266Y-140925747D01*
X220500322Y-140856589D01*
X220526113Y-140796923D01*
X220692992Y-140587664D01*
X220854365Y-140330841D01*
X220985968Y-140057565D01*
X221086146Y-139771272D01*
X221153640Y-139475563D01*
X221154132Y-139471202D01*
X221187599Y-139174163D01*
X221187600Y-139174159D01*
X221187600Y-138870840D01*
X221187599Y-138870836D01*
X221153642Y-138569451D01*
X221153641Y-138569446D01*
X221153640Y-138569437D01*
X221086146Y-138273728D01*
X220985968Y-137987435D01*
X220854365Y-137714159D01*
X220692992Y-137457336D01*
X220503879Y-137220196D01*
X220289404Y-137005721D01*
X220052264Y-136816608D01*
X219795441Y-136655235D01*
X219795438Y-136655233D01*
X219522168Y-136523633D01*
X219235883Y-136423457D01*
X219235871Y-136423453D01*
X219007656Y-136371364D01*
X218940163Y-136355960D01*
X218940160Y-136355959D01*
X218940148Y-136355957D01*
X218638763Y-136322000D01*
X218638757Y-136322000D01*
X218335443Y-136322000D01*
X218335436Y-136322000D01*
X218034051Y-136355957D01*
X218034037Y-136355960D01*
X217738328Y-136423453D01*
X217738316Y-136423457D01*
X217452031Y-136523633D01*
X217178761Y-136655233D01*
X216921937Y-136816607D01*
X216701813Y-136992150D01*
X216637126Y-137018559D01*
X216568431Y-137005802D01*
X216517537Y-136957932D01*
X216500500Y-136895203D01*
X216500500Y-135198543D01*
X224859499Y-135198543D01*
X224897947Y-135391829D01*
X224897950Y-135391839D01*
X224973364Y-135573907D01*
X224973371Y-135573920D01*
X225082860Y-135737781D01*
X225082863Y-135737785D01*
X225222214Y-135877136D01*
X225222218Y-135877139D01*
X225386079Y-135986628D01*
X225386092Y-135986635D01*
X225568160Y-136062049D01*
X225568165Y-136062051D01*
X225568169Y-136062051D01*
X225568170Y-136062052D01*
X225761456Y-136100500D01*
X225761459Y-136100500D01*
X225958543Y-136100500D01*
X226088582Y-136074632D01*
X226151835Y-136062051D01*
X226333914Y-135986632D01*
X226497782Y-135877139D01*
X226637139Y-135737782D01*
X226678287Y-135676200D01*
X226702398Y-135640116D01*
X226756010Y-135595310D01*
X226825335Y-135586603D01*
X226888362Y-135616757D01*
X226925082Y-135676200D01*
X226929500Y-135709006D01*
X226929500Y-136087460D01*
X226944630Y-136221749D01*
X226944631Y-136221754D01*
X227004211Y-136392023D01*
X227061210Y-136482735D01*
X227100184Y-136544762D01*
X227227738Y-136672316D01*
X227380478Y-136768289D01*
X227471186Y-136800029D01*
X227550745Y-136827868D01*
X227550750Y-136827869D01*
X227641246Y-136838065D01*
X227685040Y-136842999D01*
X227685043Y-136843000D01*
X227685046Y-136843000D01*
X229174957Y-136843000D01*
X229174958Y-136842999D01*
X229261746Y-136833221D01*
X229309249Y-136827869D01*
X229309252Y-136827868D01*
X229309255Y-136827868D01*
X229479522Y-136768289D01*
X229632262Y-136672316D01*
X229759816Y-136544762D01*
X229855789Y-136392022D01*
X229915368Y-136221755D01*
X229930500Y-136087454D01*
X229930500Y-136087430D01*
X230430000Y-136087430D01*
X230445122Y-136221641D01*
X230504663Y-136391801D01*
X230600577Y-136544448D01*
X230728051Y-136671922D01*
X230880698Y-136767836D01*
X231050858Y-136827377D01*
X231185069Y-136842499D01*
X231185070Y-136842500D01*
X231680000Y-136842500D01*
X232180000Y-136842500D01*
X232674930Y-136842500D01*
X232674930Y-136842499D01*
X232809141Y-136827377D01*
X232979301Y-136767836D01*
X233131948Y-136671922D01*
X233259422Y-136544448D01*
X233355336Y-136391801D01*
X233414877Y-136221641D01*
X233429999Y-136087430D01*
X233430000Y-136087430D01*
X233430000Y-135708258D01*
X233449685Y-135641219D01*
X233502489Y-135595464D01*
X233571647Y-135585520D01*
X233635203Y-135614545D01*
X233657102Y-135639367D01*
X233722860Y-135737782D01*
X233862214Y-135877136D01*
X233862218Y-135877139D01*
X234026079Y-135986628D01*
X234026092Y-135986635D01*
X234208160Y-136062049D01*
X234208165Y-136062051D01*
X234208169Y-136062051D01*
X234208170Y-136062052D01*
X234401456Y-136100500D01*
X234401459Y-136100500D01*
X234598543Y-136100500D01*
X234728582Y-136074632D01*
X234791835Y-136062051D01*
X234973914Y-135986632D01*
X235137782Y-135877139D01*
X235277139Y-135737782D01*
X235386632Y-135573914D01*
X235462051Y-135391835D01*
X235500500Y-135198541D01*
X235500500Y-133801459D01*
X235500500Y-133801456D01*
X235462052Y-133608170D01*
X235462051Y-133608169D01*
X235462051Y-133608165D01*
X235462049Y-133608160D01*
X235386635Y-133426092D01*
X235386628Y-133426079D01*
X235277139Y-133262218D01*
X235277136Y-133262214D01*
X235137785Y-133122863D01*
X235137781Y-133122860D01*
X234973920Y-133013371D01*
X234973907Y-133013364D01*
X234791839Y-132937950D01*
X234791829Y-132937947D01*
X234598543Y-132899500D01*
X234598541Y-132899500D01*
X234401459Y-132899500D01*
X234401457Y-132899500D01*
X234208170Y-132937947D01*
X234208160Y-132937950D01*
X234026092Y-133013364D01*
X234026079Y-133013371D01*
X233862218Y-133122860D01*
X233862214Y-133122863D01*
X233722863Y-133262214D01*
X233722860Y-133262218D01*
X233657102Y-133360632D01*
X233603490Y-133405437D01*
X233534165Y-133414144D01*
X233471137Y-133383989D01*
X233434418Y-133324546D01*
X233430000Y-133291741D01*
X233430000Y-132597570D01*
X233429999Y-132597569D01*
X233414877Y-132463358D01*
X233355336Y-132293198D01*
X233259422Y-132140551D01*
X233131948Y-132013077D01*
X232979301Y-131917163D01*
X232809141Y-131857622D01*
X232674930Y-131842500D01*
X232180000Y-131842500D01*
X232180000Y-136842500D01*
X231680000Y-136842500D01*
X231680000Y-134592500D01*
X230430000Y-134592500D01*
X230430000Y-136087430D01*
X229930500Y-136087430D01*
X229930500Y-132597569D01*
X230430000Y-132597569D01*
X230430000Y-134092500D01*
X231680000Y-134092500D01*
X231680000Y-131842500D01*
X231185070Y-131842500D01*
X231050858Y-131857622D01*
X230880698Y-131917163D01*
X230728051Y-132013077D01*
X230600577Y-132140551D01*
X230504663Y-132293198D01*
X230445122Y-132463358D01*
X230430000Y-132597569D01*
X229930500Y-132597569D01*
X229930500Y-132597546D01*
X229925565Y-132553746D01*
X229915369Y-132463250D01*
X229915368Y-132463245D01*
X229899301Y-132417328D01*
X229855789Y-132292978D01*
X229759816Y-132140238D01*
X229632262Y-132012684D01*
X229612076Y-132000000D01*
X229479523Y-131916711D01*
X229309254Y-131857131D01*
X229309249Y-131857130D01*
X229174960Y-131842000D01*
X229174954Y-131842000D01*
X227685046Y-131842000D01*
X227685039Y-131842000D01*
X227550750Y-131857130D01*
X227550745Y-131857131D01*
X227380476Y-131916711D01*
X227227737Y-132012684D01*
X227100184Y-132140237D01*
X227004211Y-132292976D01*
X226944631Y-132463245D01*
X226944630Y-132463250D01*
X226929500Y-132597539D01*
X226929500Y-133290993D01*
X226909815Y-133358032D01*
X226857011Y-133403787D01*
X226787853Y-133413731D01*
X226724297Y-133384706D01*
X226702398Y-133359884D01*
X226637139Y-133262218D01*
X226637136Y-133262214D01*
X226497785Y-133122863D01*
X226497781Y-133122860D01*
X226333920Y-133013371D01*
X226333907Y-133013364D01*
X226151839Y-132937950D01*
X226151829Y-132937947D01*
X225958543Y-132899500D01*
X225958541Y-132899500D01*
X225761459Y-132899500D01*
X225761457Y-132899500D01*
X225568170Y-132937947D01*
X225568160Y-132937950D01*
X225386092Y-133013364D01*
X225386079Y-133013371D01*
X225222218Y-133122860D01*
X225222214Y-133122863D01*
X225082863Y-133262214D01*
X225082860Y-133262218D01*
X224973371Y-133426079D01*
X224973364Y-133426092D01*
X224897950Y-133608160D01*
X224897947Y-133608170D01*
X224859500Y-133801456D01*
X224859500Y-133801459D01*
X224859500Y-135198541D01*
X224859500Y-135198543D01*
X224859499Y-135198543D01*
X216500500Y-135198543D01*
X216500500Y-127095134D01*
X216520185Y-127028095D01*
X216572989Y-126982340D01*
X216642147Y-126972396D01*
X216671950Y-126980572D01*
X216766503Y-127019737D01*
X216918157Y-127049903D01*
X216921153Y-127050499D01*
X216921156Y-127050500D01*
X216921158Y-127050500D01*
X217078844Y-127050500D01*
X217078845Y-127050499D01*
X217233497Y-127019737D01*
X217379179Y-126959394D01*
X217510289Y-126871789D01*
X217621789Y-126760289D01*
X217709394Y-126629179D01*
X217769737Y-126483497D01*
X217800500Y-126328842D01*
X217800500Y-126279387D01*
X217820185Y-126212348D01*
X217836819Y-126191706D01*
X220491706Y-123536819D01*
X220553029Y-123503334D01*
X220579387Y-123500500D01*
X222585399Y-123500500D01*
X222603542Y-123505827D01*
G37*
%TD.AperFunction*%
%TA.AperFunction,Conductor*%
G36*
X238918834Y-113169311D02*
G01*
X238974767Y-113211183D01*
X238999184Y-113276647D01*
X238999500Y-113285493D01*
X238999500Y-128418070D01*
X238979815Y-128485109D01*
X238927011Y-128530864D01*
X238857853Y-128540808D01*
X238813501Y-128525458D01*
X238773816Y-128502546D01*
X238710947Y-128466249D01*
X238662732Y-128415683D01*
X238649508Y-128347076D01*
X238656766Y-128315527D01*
X238669091Y-128282483D01*
X238671585Y-128259286D01*
X238675500Y-128222873D01*
X238675499Y-127277128D01*
X238669091Y-127217517D01*
X238618796Y-127082669D01*
X238618795Y-127082668D01*
X238618793Y-127082664D01*
X238532547Y-126967455D01*
X238532544Y-126967452D01*
X238417335Y-126881206D01*
X238417328Y-126881202D01*
X238366761Y-126862342D01*
X238310827Y-126820471D01*
X238286410Y-126755006D01*
X238301262Y-126686733D01*
X238306992Y-126677269D01*
X238370771Y-126581817D01*
X238370771Y-126581816D01*
X238370775Y-126581811D01*
X238423580Y-126454328D01*
X238450500Y-126318993D01*
X238450500Y-126181007D01*
X238450500Y-126181004D01*
X238423581Y-126045677D01*
X238423580Y-126045676D01*
X238423580Y-126045672D01*
X238399500Y-125987537D01*
X238370776Y-125918190D01*
X238367905Y-125912819D01*
X238369205Y-125912123D01*
X238350520Y-125852438D01*
X238350500Y-125850230D01*
X238350500Y-115953220D01*
X238350500Y-115953217D01*
X238331455Y-115882138D01*
X238309577Y-115800489D01*
X238304598Y-115791866D01*
X238280068Y-115749378D01*
X238267600Y-115727783D01*
X238230520Y-115663558D01*
X238118716Y-115551754D01*
X238118715Y-115551753D01*
X238114385Y-115547423D01*
X238114374Y-115547413D01*
X237104545Y-114537584D01*
X237071060Y-114476261D01*
X237068226Y-114449903D01*
X237068226Y-114135201D01*
X237087911Y-114068162D01*
X237140715Y-114022407D01*
X237178342Y-114011981D01*
X237240890Y-114004934D01*
X237286330Y-113999815D01*
X237286331Y-113999814D01*
X237286337Y-113999814D01*
X237582046Y-113932320D01*
X237868339Y-113832142D01*
X238141615Y-113700539D01*
X238398438Y-113539166D01*
X238635578Y-113350053D01*
X238787819Y-113197812D01*
X238849142Y-113164327D01*
X238918834Y-113169311D01*
G37*
%TD.AperFunction*%
%TA.AperFunction,Conductor*%
G36*
X231206703Y-119256384D02*
G01*
X231213180Y-119262415D01*
X233977729Y-122026965D01*
X234011213Y-122088286D01*
X234006229Y-122157978D01*
X233977729Y-122202325D01*
X233894723Y-122285331D01*
X233823538Y-122391866D01*
X233823533Y-122391875D01*
X233774499Y-122510255D01*
X233774497Y-122510261D01*
X233749500Y-122635928D01*
X233749500Y-122635931D01*
X233749500Y-122764069D01*
X233749500Y-122764071D01*
X233749499Y-122764071D01*
X233774497Y-122889738D01*
X233774499Y-122889744D01*
X233790061Y-122927313D01*
X233799500Y-122974766D01*
X233799500Y-127049903D01*
X233779815Y-127116942D01*
X233763181Y-127137584D01*
X233287584Y-127613181D01*
X233226261Y-127646666D01*
X233199903Y-127649500D01*
X226128387Y-127649500D01*
X226061348Y-127629815D01*
X226015593Y-127577011D01*
X226005649Y-127507853D01*
X226034674Y-127444297D01*
X226040706Y-127437819D01*
X226506129Y-126972396D01*
X227917309Y-125561214D01*
X227978630Y-125527731D01*
X227980684Y-125527302D01*
X227989744Y-125525501D01*
X228108127Y-125476465D01*
X228214669Y-125405276D01*
X228305276Y-125314669D01*
X228376465Y-125208127D01*
X228425501Y-125089744D01*
X228450500Y-124964069D01*
X228450500Y-124835931D01*
X228442091Y-124793657D01*
X228448318Y-124724066D01*
X228476025Y-124681786D01*
X230891510Y-122266303D01*
X230963984Y-122140773D01*
X230995545Y-122022986D01*
X231001500Y-122000763D01*
X231001500Y-119350097D01*
X231021185Y-119283058D01*
X231073989Y-119237303D01*
X231143147Y-119227359D01*
X231206703Y-119256384D01*
G37*
%TD.AperFunction*%
%TA.AperFunction,Conductor*%
G36*
X225904703Y-124954384D02*
G01*
X225911181Y-124960416D01*
X226081091Y-125130326D01*
X226084198Y-125134976D01*
X226087235Y-125136934D01*
X226106275Y-125166651D01*
X226107164Y-125168605D01*
X226123535Y-125208127D01*
X226128588Y-125215690D01*
X226132761Y-125224860D01*
X226142609Y-125294033D01*
X226113497Y-125357548D01*
X226107577Y-125363897D01*
X225911181Y-125560294D01*
X225849858Y-125593779D01*
X225780167Y-125588795D01*
X225724233Y-125546924D01*
X225699816Y-125481459D01*
X225699500Y-125472613D01*
X225699500Y-125048097D01*
X225719185Y-124981058D01*
X225771989Y-124935303D01*
X225841147Y-124925359D01*
X225904703Y-124954384D01*
G37*
%TD.AperFunction*%
%TA.AperFunction,Conductor*%
G36*
X216704932Y-113124664D02*
G01*
X216704976Y-113124610D01*
X216705193Y-113124783D01*
X216705703Y-113125016D01*
X216707149Y-113126289D01*
X216707687Y-113126770D01*
X216707696Y-113126779D01*
X216944836Y-113315892D01*
X217201659Y-113477265D01*
X217474935Y-113608868D01*
X217675644Y-113679099D01*
X217761216Y-113709042D01*
X217761222Y-113709044D01*
X217761228Y-113709046D01*
X218056937Y-113776540D01*
X218056946Y-113776541D01*
X218056951Y-113776542D01*
X218257874Y-113799180D01*
X218358337Y-113810499D01*
X218358340Y-113810500D01*
X218358343Y-113810500D01*
X218661660Y-113810500D01*
X218661661Y-113810499D01*
X218815694Y-113793144D01*
X218963048Y-113776542D01*
X218963051Y-113776541D01*
X218963063Y-113776540D01*
X219258772Y-113709046D01*
X219319667Y-113687737D01*
X219389445Y-113684175D01*
X219450073Y-113718904D01*
X219482300Y-113780897D01*
X219475896Y-113850472D01*
X219448303Y-113892460D01*
X217494671Y-115846092D01*
X217454446Y-115872971D01*
X217416873Y-115888535D01*
X217310328Y-115959725D01*
X217219726Y-116050327D01*
X217219723Y-116050331D01*
X217148538Y-116156866D01*
X217148533Y-116156875D01*
X217099499Y-116275255D01*
X217099497Y-116275261D01*
X217074500Y-116400928D01*
X217074500Y-116400931D01*
X217074500Y-116529069D01*
X217074500Y-116529071D01*
X217074499Y-116529071D01*
X217099497Y-116654738D01*
X217099499Y-116654744D01*
X217148533Y-116773124D01*
X217148538Y-116773133D01*
X217219723Y-116879668D01*
X217219726Y-116879672D01*
X217310327Y-116970273D01*
X217310331Y-116970276D01*
X217416866Y-117041461D01*
X217416872Y-117041464D01*
X217416873Y-117041465D01*
X217535256Y-117090501D01*
X217535260Y-117090501D01*
X217535261Y-117090502D01*
X217660928Y-117115500D01*
X217660931Y-117115500D01*
X217789071Y-117115500D01*
X217873615Y-117098682D01*
X217914744Y-117090501D01*
X218033127Y-117041465D01*
X218056083Y-117026126D01*
X218750000Y-117026126D01*
X218750000Y-117173873D01*
X218778820Y-117318759D01*
X218778822Y-117318767D01*
X218822421Y-117424024D01*
X219146446Y-117100000D01*
X219146446Y-117099999D01*
X219126556Y-117080109D01*
X219400000Y-117080109D01*
X219400000Y-117119891D01*
X219415224Y-117156645D01*
X219443355Y-117184776D01*
X219480109Y-117200000D01*
X219519891Y-117200000D01*
X219556645Y-117184776D01*
X219584776Y-117156645D01*
X219600000Y-117119891D01*
X219600000Y-117099999D01*
X219853554Y-117099999D01*
X219853554Y-117100001D01*
X220177929Y-117424376D01*
X220222069Y-117424376D01*
X220546446Y-117100000D01*
X220222068Y-116775622D01*
X220177930Y-116775622D01*
X219853554Y-117099999D01*
X219600000Y-117099999D01*
X219600000Y-117080109D01*
X219584776Y-117043355D01*
X219556645Y-117015224D01*
X219519891Y-117000000D01*
X219480109Y-117000000D01*
X219443355Y-117015224D01*
X219415224Y-117043355D01*
X219400000Y-117080109D01*
X219126556Y-117080109D01*
X218822421Y-116775974D01*
X218822420Y-116775974D01*
X218778823Y-116881228D01*
X218778820Y-116881240D01*
X218750000Y-117026126D01*
X218056083Y-117026126D01*
X218139669Y-116970276D01*
X218149626Y-116960319D01*
X218177588Y-116932358D01*
X218230273Y-116879672D01*
X218230276Y-116879669D01*
X218301465Y-116773127D01*
X218317027Y-116735554D01*
X218343904Y-116695329D01*
X218539233Y-116500000D01*
X219253554Y-116500000D01*
X219500000Y-116746446D01*
X219746446Y-116500000D01*
X219500000Y-116253554D01*
X219253554Y-116500000D01*
X218539233Y-116500000D01*
X218769540Y-116269693D01*
X218785425Y-116261019D01*
X219166337Y-115880109D01*
X219400000Y-115880109D01*
X219400000Y-115919891D01*
X219415224Y-115956645D01*
X219443355Y-115984776D01*
X219480109Y-116000000D01*
X219519891Y-116000000D01*
X219556645Y-115984776D01*
X219584776Y-115956645D01*
X219600000Y-115919891D01*
X219600000Y-115899999D01*
X219853554Y-115899999D01*
X219853554Y-115900001D01*
X220177929Y-116224376D01*
X220222069Y-116224376D01*
X220546446Y-115900000D01*
X220222068Y-115575622D01*
X220177930Y-115575622D01*
X219853554Y-115899999D01*
X219600000Y-115899999D01*
X219600000Y-115880109D01*
X219584776Y-115843355D01*
X219556645Y-115815224D01*
X219519891Y-115800000D01*
X219480109Y-115800000D01*
X219443355Y-115815224D01*
X219415224Y-115843355D01*
X219400000Y-115880109D01*
X219166337Y-115880109D01*
X219285489Y-115760957D01*
X219323223Y-115723223D01*
X219855983Y-115190461D01*
X219869692Y-115169541D01*
X220638821Y-114400412D01*
X220700142Y-114366929D01*
X220769834Y-114371913D01*
X220825767Y-114413785D01*
X220850184Y-114479249D01*
X220850500Y-114488095D01*
X220850500Y-115043388D01*
X220830815Y-115110427D01*
X220778011Y-115156182D01*
X220750692Y-115165005D01*
X220681238Y-115178820D01*
X220681228Y-115178823D01*
X220575974Y-115222420D01*
X220575974Y-115222421D01*
X220814181Y-115460627D01*
X220847666Y-115521950D01*
X220850500Y-115548308D01*
X220850500Y-115812264D01*
X220843355Y-115815224D01*
X220815224Y-115843355D01*
X220800000Y-115880109D01*
X220800000Y-115919891D01*
X220815224Y-115956645D01*
X220843355Y-115984776D01*
X220850500Y-115987735D01*
X220850500Y-116251692D01*
X220830815Y-116318731D01*
X220814181Y-116339373D01*
X220653554Y-116500000D01*
X220814181Y-116660627D01*
X220847666Y-116721950D01*
X220850500Y-116748308D01*
X220850500Y-117012264D01*
X220843355Y-117015224D01*
X220815224Y-117043355D01*
X220800000Y-117080109D01*
X220800000Y-117119891D01*
X220815224Y-117156645D01*
X220843355Y-117184776D01*
X220850500Y-117187735D01*
X220850500Y-117451692D01*
X220830815Y-117518731D01*
X220814181Y-117539373D01*
X220653554Y-117700000D01*
X220814181Y-117860627D01*
X220828884Y-117887554D01*
X220845477Y-117913373D01*
X220846368Y-117919573D01*
X220847666Y-117921950D01*
X220850500Y-117948308D01*
X220850500Y-118126500D01*
X220830815Y-118193539D01*
X220778011Y-118239294D01*
X220726500Y-118250500D01*
X220548308Y-118250500D01*
X220481269Y-118230815D01*
X220460627Y-118214181D01*
X220222068Y-117975622D01*
X220177931Y-117975622D01*
X219939374Y-118214181D01*
X219878051Y-118247666D01*
X219851692Y-118250500D01*
X219848714Y-118250500D01*
X219743706Y-118278637D01*
X219708703Y-118288016D01*
X219583175Y-118360489D01*
X219583172Y-118360491D01*
X217578491Y-120365172D01*
X217578487Y-120365177D01*
X217552911Y-120409479D01*
X217552910Y-120409481D01*
X217506017Y-120490701D01*
X217506016Y-120490702D01*
X217487258Y-120560709D01*
X217468500Y-120630714D01*
X217468500Y-122169286D01*
X217473176Y-122186737D01*
X217506016Y-122309296D01*
X217578490Y-122434826D01*
X217945175Y-122801510D01*
X217974108Y-122818214D01*
X217974110Y-122818216D01*
X217974111Y-122818216D01*
X218070700Y-122873982D01*
X218070701Y-122873982D01*
X218070704Y-122873984D01*
X218210714Y-122911500D01*
X218210715Y-122911500D01*
X218355663Y-122911500D01*
X219260613Y-122911500D01*
X219327652Y-122931185D01*
X219373407Y-122983989D01*
X219383351Y-123053147D01*
X219354326Y-123116703D01*
X219348294Y-123123181D01*
X217058294Y-125413181D01*
X216996971Y-125446666D01*
X216970613Y-125449500D01*
X216921155Y-125449500D01*
X216766510Y-125480261D01*
X216766507Y-125480261D01*
X216671952Y-125519427D01*
X216602482Y-125526895D01*
X216540003Y-125495619D01*
X216504351Y-125435530D01*
X216500500Y-125404865D01*
X216500500Y-118226126D01*
X218750000Y-118226126D01*
X218750000Y-118373873D01*
X218778820Y-118518759D01*
X218778822Y-118518767D01*
X218822421Y-118624024D01*
X219146446Y-118300000D01*
X219146446Y-118299999D01*
X219126556Y-118280109D01*
X219400000Y-118280109D01*
X219400000Y-118319891D01*
X219415224Y-118356645D01*
X219443355Y-118384776D01*
X219480109Y-118400000D01*
X219519891Y-118400000D01*
X219556645Y-118384776D01*
X219584776Y-118356645D01*
X219600000Y-118319891D01*
X219600000Y-118280109D01*
X219584776Y-118243355D01*
X219556645Y-118215224D01*
X219519891Y-118200000D01*
X219480109Y-118200000D01*
X219443355Y-118215224D01*
X219415224Y-118243355D01*
X219400000Y-118280109D01*
X219126556Y-118280109D01*
X218822421Y-117975974D01*
X218822420Y-117975974D01*
X218778823Y-118081228D01*
X218778820Y-118081240D01*
X218750000Y-118226126D01*
X216500500Y-118226126D01*
X216500500Y-117700000D01*
X219253554Y-117700000D01*
X219500000Y-117946446D01*
X219746446Y-117700000D01*
X219500000Y-117453554D01*
X219253554Y-117700000D01*
X216500500Y-117700000D01*
X216500500Y-113218729D01*
X216520185Y-113151690D01*
X216572989Y-113105935D01*
X216642147Y-113095991D01*
X216704932Y-113124664D01*
G37*
%TD.AperFunction*%
%TA.AperFunction,Conductor*%
G36*
X227140647Y-123275072D02*
G01*
X227187347Y-123327042D01*
X227199500Y-123380580D01*
X227199500Y-123525233D01*
X227190061Y-123572685D01*
X227174500Y-123610251D01*
X227174497Y-123610261D01*
X227149500Y-123735928D01*
X227149500Y-123735931D01*
X227149500Y-123864069D01*
X227149500Y-123864071D01*
X227149499Y-123864071D01*
X227171063Y-123972474D01*
X227170355Y-123980380D01*
X227173130Y-123987819D01*
X227167286Y-124014681D01*
X227164836Y-124042066D01*
X227159586Y-124050076D01*
X227158278Y-124056092D01*
X227137128Y-124084347D01*
X227023034Y-124198440D01*
X226961714Y-124231924D01*
X226892022Y-124226940D01*
X226847674Y-124198439D01*
X226835819Y-124186584D01*
X226802334Y-124125261D01*
X226799500Y-124098903D01*
X226799500Y-123444840D01*
X226819185Y-123377801D01*
X226871989Y-123332046D01*
X226887514Y-123326177D01*
X226889734Y-123325502D01*
X226889744Y-123325501D01*
X227008127Y-123276465D01*
X227008134Y-123276459D01*
X227013494Y-123273596D01*
X227014286Y-123275079D01*
X227073263Y-123256600D01*
X227140647Y-123275072D01*
G37*
%TD.AperFunction*%
%TA.AperFunction,Conductor*%
G36*
X228917834Y-117533914D02*
G01*
X228973767Y-117575786D01*
X228998184Y-117641250D01*
X228998500Y-117650096D01*
X228998500Y-117921475D01*
X229001531Y-117932785D01*
X229002474Y-117936307D01*
X229002476Y-117936313D01*
X229027430Y-118029442D01*
X229036016Y-118061485D01*
X229105317Y-118181520D01*
X229108489Y-118187013D01*
X229108491Y-118187016D01*
X229338783Y-118417308D01*
X229372268Y-118478631D01*
X229372719Y-118480798D01*
X229374497Y-118489736D01*
X229374499Y-118489744D01*
X229423533Y-118608124D01*
X229423538Y-118608133D01*
X229494723Y-118714668D01*
X229494726Y-118714672D01*
X229585327Y-118805273D01*
X229585331Y-118805276D01*
X229691866Y-118876461D01*
X229691872Y-118876464D01*
X229691873Y-118876465D01*
X229810256Y-118925501D01*
X229810262Y-118925502D01*
X229812486Y-118926177D01*
X229813512Y-118926849D01*
X229815884Y-118927832D01*
X229815697Y-118928281D01*
X229870928Y-118964469D01*
X229899389Y-119028279D01*
X229900500Y-119044840D01*
X229900500Y-121648901D01*
X229880815Y-121715940D01*
X229864181Y-121736582D01*
X228600828Y-122999934D01*
X228539505Y-123033419D01*
X228469813Y-123028435D01*
X228413880Y-122986563D01*
X228393375Y-122944352D01*
X228359577Y-122818216D01*
X228328316Y-122764069D01*
X228280524Y-122681290D01*
X228280521Y-122681286D01*
X228280520Y-122681284D01*
X228168716Y-122569480D01*
X228168715Y-122569479D01*
X228164385Y-122565149D01*
X228164374Y-122565139D01*
X227886819Y-122287584D01*
X227853334Y-122226261D01*
X227850500Y-122199903D01*
X227850500Y-118550096D01*
X227870185Y-118483057D01*
X227886814Y-118462419D01*
X228786819Y-117562414D01*
X228848142Y-117528930D01*
X228917834Y-117533914D01*
G37*
%TD.AperFunction*%
%TA.AperFunction,Conductor*%
G36*
X235027050Y-109110166D02*
G01*
X235072805Y-109162970D01*
X235082749Y-109232128D01*
X235053724Y-109295684D01*
X235037325Y-109311426D01*
X235034254Y-109313875D01*
X235030968Y-109316496D01*
X234816494Y-109530970D01*
X234627381Y-109768111D01*
X234466007Y-110024935D01*
X234334407Y-110298205D01*
X234234231Y-110584490D01*
X234234227Y-110584502D01*
X234166734Y-110880211D01*
X234166731Y-110880225D01*
X234132774Y-111181610D01*
X234132774Y-111484937D01*
X234166731Y-111786322D01*
X234166734Y-111786336D01*
X234234227Y-112082045D01*
X234234231Y-112082057D01*
X234334407Y-112368342D01*
X234466007Y-112641612D01*
X234466009Y-112641615D01*
X234627382Y-112898438D01*
X234748647Y-113050499D01*
X234816494Y-113135577D01*
X234836462Y-113155545D01*
X234869947Y-113216868D01*
X234864963Y-113286560D01*
X234823091Y-113342493D01*
X234757627Y-113366910D01*
X234748781Y-113367226D01*
X234418944Y-113367226D01*
X234418928Y-113367225D01*
X234411332Y-113367225D01*
X234253217Y-113367225D01*
X234145861Y-113395991D01*
X234100484Y-113408150D01*
X234100483Y-113408151D01*
X234062962Y-113429815D01*
X234062960Y-113429816D01*
X233963564Y-113487201D01*
X233963556Y-113487207D01*
X233851752Y-113599012D01*
X231969671Y-115481092D01*
X231929446Y-115507971D01*
X231891873Y-115523535D01*
X231785328Y-115594725D01*
X231694726Y-115685327D01*
X231694723Y-115685331D01*
X231623538Y-115791866D01*
X231623533Y-115791875D01*
X231574499Y-115910255D01*
X231574497Y-115910261D01*
X231549500Y-116035928D01*
X231549500Y-116035931D01*
X231549500Y-116164069D01*
X231549500Y-116164071D01*
X231549499Y-116164071D01*
X231574497Y-116289738D01*
X231574499Y-116289744D01*
X231623533Y-116408124D01*
X231623538Y-116408133D01*
X231694723Y-116514668D01*
X231694726Y-116514672D01*
X231742373Y-116562319D01*
X231775858Y-116623642D01*
X231770874Y-116693334D01*
X231742373Y-116737681D01*
X231694726Y-116785327D01*
X231694723Y-116785331D01*
X231623538Y-116891866D01*
X231623533Y-116891875D01*
X231574499Y-117010255D01*
X231574497Y-117010261D01*
X231549500Y-117135928D01*
X231549500Y-117135931D01*
X231549500Y-117264069D01*
X231549500Y-117264071D01*
X231549499Y-117264071D01*
X231574497Y-117389738D01*
X231574499Y-117389744D01*
X231623533Y-117508124D01*
X231623538Y-117508133D01*
X231694723Y-117614668D01*
X231694726Y-117614672D01*
X231785327Y-117705273D01*
X231785331Y-117705276D01*
X231891866Y-117776461D01*
X231891873Y-117776465D01*
X231929443Y-117792027D01*
X231935729Y-117797092D01*
X231969672Y-117818907D01*
X232216139Y-118065374D01*
X232216149Y-118065385D01*
X232220479Y-118069715D01*
X232220480Y-118069716D01*
X232332284Y-118181520D01*
X232417154Y-118230519D01*
X232417156Y-118230521D01*
X232469211Y-118260575D01*
X232469215Y-118260577D01*
X232621943Y-118301501D01*
X232621946Y-118301501D01*
X232787653Y-118301501D01*
X232787669Y-118301500D01*
X233150903Y-118301500D01*
X233217942Y-118321185D01*
X233238584Y-118337819D01*
X235364181Y-120463416D01*
X235397666Y-120524739D01*
X235400500Y-120551097D01*
X235400500Y-121451902D01*
X235380815Y-121518941D01*
X235328011Y-121564696D01*
X235258853Y-121574640D01*
X235195297Y-121545615D01*
X235188819Y-121539583D01*
X231718907Y-118069672D01*
X231712626Y-118060272D01*
X231707321Y-118056301D01*
X231703970Y-118047318D01*
X231692027Y-118029444D01*
X231676465Y-117991873D01*
X231676461Y-117991866D01*
X231605276Y-117885331D01*
X231605273Y-117885327D01*
X231514672Y-117794726D01*
X231514668Y-117794723D01*
X231408133Y-117723538D01*
X231408124Y-117723533D01*
X231289744Y-117674499D01*
X231289738Y-117674497D01*
X231164071Y-117649500D01*
X231164069Y-117649500D01*
X231115666Y-117649500D01*
X231091186Y-117642311D01*
X231065882Y-117639067D01*
X231058223Y-117632632D01*
X231048627Y-117629815D01*
X231031920Y-117610534D01*
X231012386Y-117594123D01*
X231006603Y-117581317D01*
X231002872Y-117577011D01*
X230997236Y-117562246D01*
X230996517Y-117559930D01*
X230963984Y-117438515D01*
X230959809Y-117431284D01*
X230891510Y-117312985D01*
X230661216Y-117082691D01*
X230627731Y-117021368D01*
X230627279Y-117019197D01*
X230625501Y-117010257D01*
X230625500Y-117010255D01*
X230604816Y-116960319D01*
X230576468Y-116891879D01*
X230576461Y-116891866D01*
X230505276Y-116785331D01*
X230505273Y-116785327D01*
X230414672Y-116694726D01*
X230414668Y-116694723D01*
X230308133Y-116623538D01*
X230308124Y-116623533D01*
X230189733Y-116574494D01*
X230187487Y-116573813D01*
X230186456Y-116573137D01*
X230184116Y-116572168D01*
X230184300Y-116571723D01*
X230165842Y-116559623D01*
X230142297Y-116548871D01*
X230137097Y-116540779D01*
X230129054Y-116535507D01*
X230118515Y-116511866D01*
X230104523Y-116490093D01*
X230102481Y-116475896D01*
X230100607Y-116471691D01*
X230099500Y-116455158D01*
X230099500Y-116233998D01*
X230119185Y-116166959D01*
X230135819Y-116146317D01*
X230596809Y-115685327D01*
X231081209Y-115200927D01*
X231153683Y-115075398D01*
X231191199Y-114935387D01*
X231191199Y-114790438D01*
X231191199Y-114096865D01*
X231210884Y-114029826D01*
X231253200Y-113989477D01*
X231338015Y-113940510D01*
X231791510Y-113487015D01*
X231863984Y-113361485D01*
X231898852Y-113231356D01*
X231901500Y-113221475D01*
X231901500Y-112282135D01*
X231891976Y-112246591D01*
X231892571Y-112221598D01*
X231889013Y-112196853D01*
X231893388Y-112187272D01*
X231893639Y-112176744D01*
X231907651Y-112156039D01*
X231918038Y-112133297D01*
X231926897Y-112127603D01*
X231932801Y-112118881D01*
X231955784Y-112109038D01*
X231976816Y-112095523D01*
X231992670Y-112093243D01*
X231997029Y-112091377D01*
X232011751Y-112090500D01*
X232115399Y-112090500D01*
X232182438Y-112110185D01*
X232184252Y-112111373D01*
X232191873Y-112116465D01*
X232310256Y-112165501D01*
X232310260Y-112165501D01*
X232310261Y-112165502D01*
X232435928Y-112190500D01*
X232435931Y-112190500D01*
X232564071Y-112190500D01*
X232648615Y-112173682D01*
X232689744Y-112165501D01*
X232808127Y-112116465D01*
X232914669Y-112045276D01*
X233005276Y-111954669D01*
X233076465Y-111848127D01*
X233125501Y-111729744D01*
X233133682Y-111688615D01*
X233150500Y-111604071D01*
X233150500Y-111475928D01*
X233125502Y-111350261D01*
X233125501Y-111350260D01*
X233125501Y-111350256D01*
X233076465Y-111231873D01*
X233076464Y-111231872D01*
X233076461Y-111231866D01*
X233005276Y-111125331D01*
X233005273Y-111125327D01*
X232914672Y-111034726D01*
X232914668Y-111034723D01*
X232808133Y-110963538D01*
X232808124Y-110963533D01*
X232689744Y-110914499D01*
X232689738Y-110914497D01*
X232564071Y-110889500D01*
X232564069Y-110889500D01*
X232435931Y-110889500D01*
X232435929Y-110889500D01*
X232310261Y-110914497D01*
X232310255Y-110914499D01*
X232191876Y-110963533D01*
X232191873Y-110963534D01*
X232191873Y-110963535D01*
X232184287Y-110968603D01*
X232117611Y-110989480D01*
X232115399Y-110989500D01*
X230803677Y-110989500D01*
X230736638Y-110969815D01*
X230715996Y-110953181D01*
X230580161Y-110817346D01*
X230580160Y-110817345D01*
X230454630Y-110744871D01*
X230454631Y-110744871D01*
X230419627Y-110735492D01*
X230314620Y-110707355D01*
X230169670Y-110707355D01*
X230064662Y-110735492D01*
X230029659Y-110744871D01*
X229904131Y-110817344D01*
X229904128Y-110817346D01*
X229801636Y-110919838D01*
X229801634Y-110919841D01*
X229745514Y-111017046D01*
X229745513Y-111017048D01*
X229735308Y-111034724D01*
X229729161Y-111045370D01*
X229691645Y-111185380D01*
X229691645Y-111330330D01*
X229696986Y-111350261D01*
X229717341Y-111426226D01*
X229717341Y-111426227D01*
X229721676Y-111442406D01*
X229720013Y-111512256D01*
X229680850Y-111570119D01*
X229616621Y-111597622D01*
X229601901Y-111598499D01*
X228361536Y-111598499D01*
X228295849Y-111616099D01*
X228295849Y-111616100D01*
X228221526Y-111636015D01*
X228221524Y-111636015D01*
X228221524Y-111636016D01*
X228095997Y-111708488D01*
X228095994Y-111708490D01*
X224708491Y-115095993D01*
X224708487Y-115095998D01*
X224690428Y-115127280D01*
X224690427Y-115127282D01*
X224636017Y-115221522D01*
X224636016Y-115221523D01*
X224617258Y-115291530D01*
X224598500Y-115361535D01*
X224598500Y-115361537D01*
X224598500Y-117239903D01*
X224578815Y-117306942D01*
X224526011Y-117352697D01*
X224456853Y-117362641D01*
X224393297Y-117333616D01*
X224386819Y-117327584D01*
X223293907Y-116234672D01*
X223267027Y-116194444D01*
X223251465Y-116156873D01*
X223251461Y-116156866D01*
X223180276Y-116050331D01*
X223180273Y-116050327D01*
X223089672Y-115959726D01*
X223089668Y-115959723D01*
X222983133Y-115888538D01*
X222983124Y-115888533D01*
X222864744Y-115839499D01*
X222864738Y-115839497D01*
X222739071Y-115814500D01*
X222739069Y-115814500D01*
X222610931Y-115814500D01*
X222610929Y-115814500D01*
X222485261Y-115839497D01*
X222485255Y-115839499D01*
X222366875Y-115888533D01*
X222366866Y-115888538D01*
X222260331Y-115959723D01*
X222260327Y-115959726D01*
X222165416Y-116054638D01*
X222164079Y-116053301D01*
X222113600Y-116087682D01*
X222043755Y-116089548D01*
X221983989Y-116053357D01*
X221953277Y-115990599D01*
X221951500Y-115969680D01*
X221951500Y-114078527D01*
X221951500Y-114078525D01*
X221913984Y-113938515D01*
X221910407Y-113932320D01*
X221841510Y-113812985D01*
X221810313Y-113781788D01*
X221803442Y-113771425D01*
X221796646Y-113749447D01*
X221785623Y-113729260D01*
X221786521Y-113716701D01*
X221782802Y-113704674D01*
X221788966Y-113682513D01*
X221790607Y-113659568D01*
X221798152Y-113649489D01*
X221801526Y-113637360D01*
X221818694Y-113622048D01*
X221832479Y-113603635D01*
X221837902Y-113599798D01*
X221844666Y-113595278D01*
X221844665Y-113595278D01*
X221844669Y-113595276D01*
X221935276Y-113504669D01*
X222006465Y-113398127D01*
X222055501Y-113279744D01*
X222078460Y-113164327D01*
X222080500Y-113154071D01*
X222080500Y-113025928D01*
X222055502Y-112900261D01*
X222055501Y-112900260D01*
X222055501Y-112900256D01*
X222006465Y-112781873D01*
X222006464Y-112781872D01*
X222006461Y-112781866D01*
X221935276Y-112675331D01*
X221935273Y-112675327D01*
X221844672Y-112584726D01*
X221844668Y-112584723D01*
X221738133Y-112513538D01*
X221738124Y-112513533D01*
X221619744Y-112464499D01*
X221619738Y-112464497D01*
X221494071Y-112439500D01*
X221494069Y-112439500D01*
X221365931Y-112439500D01*
X221365929Y-112439500D01*
X221240261Y-112464497D01*
X221240251Y-112464500D01*
X221202687Y-112480060D01*
X221194510Y-112481686D01*
X221190170Y-112484476D01*
X221155235Y-112489499D01*
X221040342Y-112489499D01*
X220973303Y-112469814D01*
X220927548Y-112417010D01*
X220917604Y-112347852D01*
X220928622Y-112311697D01*
X220959974Y-112246594D01*
X221008868Y-112145065D01*
X221109046Y-111858772D01*
X221176540Y-111563063D01*
X221210500Y-111261657D01*
X221210500Y-110958343D01*
X221194614Y-110817346D01*
X221176542Y-110656951D01*
X221176541Y-110656946D01*
X221176540Y-110656937D01*
X221109046Y-110361228D01*
X221008868Y-110074935D01*
X220877265Y-109801659D01*
X220715892Y-109544836D01*
X220526779Y-109307696D01*
X220521245Y-109302162D01*
X220487760Y-109240839D01*
X220492744Y-109171147D01*
X220534616Y-109115214D01*
X220600080Y-109090797D01*
X220608926Y-109090481D01*
X234960011Y-109090481D01*
X235027050Y-109110166D01*
G37*
%TD.AperFunction*%
%TA.AperFunction,Conductor*%
G36*
X235318834Y-116132914D02*
G01*
X235374767Y-116174786D01*
X235399184Y-116240250D01*
X235399500Y-116249096D01*
X235399500Y-116663330D01*
X235399499Y-116663348D01*
X235399499Y-116829054D01*
X235399498Y-116829054D01*
X235440423Y-116981785D01*
X235456861Y-117010256D01*
X235456860Y-117010256D01*
X235456861Y-117010257D01*
X235519475Y-117118709D01*
X235519479Y-117118714D01*
X235519480Y-117118716D01*
X235631284Y-117230520D01*
X235631285Y-117230521D01*
X235763405Y-117362641D01*
X235863181Y-117462416D01*
X235896666Y-117523739D01*
X235899500Y-117550097D01*
X235899500Y-119000902D01*
X235879815Y-119067941D01*
X235827011Y-119113696D01*
X235757853Y-119123640D01*
X235694297Y-119094615D01*
X235687819Y-119088583D01*
X234061916Y-117462680D01*
X234028431Y-117401357D01*
X234033415Y-117331665D01*
X234061916Y-117287318D01*
X234685904Y-116663330D01*
X235187820Y-116161413D01*
X235249142Y-116127930D01*
X235318834Y-116132914D01*
G37*
%TD.AperFunction*%
%TA.AperFunction,Conductor*%
G36*
X236805703Y-115937658D02*
G01*
X236812181Y-115943690D01*
X237113181Y-116244690D01*
X237146666Y-116306013D01*
X237149500Y-116332371D01*
X237149500Y-116750902D01*
X237129815Y-116817941D01*
X237077011Y-116863696D01*
X237007853Y-116873640D01*
X236944297Y-116844615D01*
X236937819Y-116838583D01*
X236636819Y-116537583D01*
X236603334Y-116476260D01*
X236600500Y-116449902D01*
X236600500Y-116031371D01*
X236620185Y-115964332D01*
X236672989Y-115918577D01*
X236742147Y-115908633D01*
X236805703Y-115937658D01*
G37*
%TD.AperFunction*%
%TD*%
M02*
