%TF.GenerationSoftware,KiCad,Pcbnew,9.0.5*%
%TF.CreationDate,2025-10-17T10:40:51+05:30*%
%TF.ProjectId,WVM,57564d2e-6b69-4636-9164-5f7063625858,rev?*%
%TF.SameCoordinates,Original*%
%TF.FileFunction,Soldermask,Bot*%
%TF.FilePolarity,Negative*%
%FSLAX46Y46*%
G04 Gerber Fmt 4.6, Leading zero omitted, Abs format (unit mm)*
G04 Created by KiCad (PCBNEW 9.0.5) date 2025-10-17 10:40:51*
%MOMM*%
%LPD*%
G01*
G04 APERTURE LIST*
G04 Aperture macros list*
%AMRoundRect*
0 Rectangle with rounded corners*
0 $1 Rounding radius*
0 $2 $3 $4 $5 $6 $7 $8 $9 X,Y pos of 4 corners*
0 Add a 4 corners polygon primitive as box body*
4,1,4,$2,$3,$4,$5,$6,$7,$8,$9,$2,$3,0*
0 Add four circle primitives for the rounded corners*
1,1,$1+$1,$2,$3*
1,1,$1+$1,$4,$5*
1,1,$1+$1,$6,$7*
1,1,$1+$1,$8,$9*
0 Add four rect primitives between the rounded corners*
20,1,$1+$1,$2,$3,$4,$5,0*
20,1,$1+$1,$4,$5,$6,$7,0*
20,1,$1+$1,$6,$7,$8,$9,0*
20,1,$1+$1,$8,$9,$2,$3,0*%
G04 Aperture macros list end*
%ADD10C,0.700000*%
%ADD11C,4.400000*%
%ADD12O,1.204000X2.004000*%
%ADD13O,1.204000X2.404000*%
%ADD14R,0.850000X0.850000*%
%ADD15C,0.850000*%
%ADD16RoundRect,0.300000X0.700000X1.700000X-0.700000X1.700000X-0.700000X-1.700000X0.700000X-1.700000X0*%
G04 APERTURE END LIST*
D10*
%TO.C,H4*%
X216837100Y-139022500D03*
X217320374Y-137855774D03*
X217320374Y-140189226D03*
X218487100Y-137372500D03*
D11*
X218487100Y-139022500D03*
D10*
X218487100Y-140672500D03*
X219653826Y-137855774D03*
X219653826Y-140189226D03*
X220137100Y-139022500D03*
%TD*%
D12*
%TO.C,J1*%
X225860000Y-130500000D03*
X234500000Y-130500000D03*
D13*
X225860000Y-134500000D03*
X234500000Y-134500000D03*
%TD*%
D14*
%TO.C,J5*%
X237750000Y-129750000D03*
D15*
X236750000Y-129750000D03*
%TD*%
D10*
%TO.C,H2*%
X235183274Y-111333274D03*
X235666548Y-110166548D03*
X235666548Y-112500000D03*
X236833274Y-109683274D03*
D11*
X236833274Y-111333274D03*
D10*
X236833274Y-112983274D03*
X238000000Y-110166548D03*
X238000000Y-112500000D03*
X238483274Y-111333274D03*
%TD*%
D14*
%TO.C,J4*%
X237750000Y-131750000D03*
D15*
X236750000Y-131750000D03*
%TD*%
D10*
%TO.C,H1*%
X235350000Y-138850000D03*
X235833274Y-137683274D03*
X235833274Y-140016726D03*
X237000000Y-137200000D03*
D11*
X237000000Y-138850000D03*
D10*
X237000000Y-140500000D03*
X238166726Y-137683274D03*
X238166726Y-140016726D03*
X238650000Y-138850000D03*
%TD*%
%TO.C,H3*%
X216860000Y-111110000D03*
X217343274Y-109943274D03*
X217343274Y-112276726D03*
X218510000Y-109460000D03*
D11*
X218510000Y-111110000D03*
D10*
X218510000Y-112760000D03*
X219676726Y-109943274D03*
X219676726Y-112276726D03*
X220160000Y-111110000D03*
%TD*%
D14*
%TO.C,J6*%
X237750000Y-127750000D03*
D15*
X236750000Y-127750000D03*
%TD*%
D16*
%TO.C,J2*%
X228430000Y-134342500D03*
X231930000Y-134342500D03*
%TD*%
M02*
