%TF.GenerationSoftware,KiCad,Pcbnew,9.0.5*%
%TF.CreationDate,2025-10-17T10:40:51+05:30*%
%TF.ProjectId,WVM,57564d2e-6b69-4636-9164-5f7063625858,rev?*%
%TF.SameCoordinates,Original*%
%TF.FileFunction,Soldermask,Top*%
%TF.FilePolarity,Negative*%
%FSLAX46Y46*%
G04 Gerber Fmt 4.6, Leading zero omitted, Abs format (unit mm)*
G04 Created by KiCad (PCBNEW 9.0.5) date 2025-10-17 10:40:51*
%MOMM*%
%LPD*%
G01*
G04 APERTURE LIST*
G04 Aperture macros list*
%AMRoundRect*
0 Rectangle with rounded corners*
0 $1 Rounding radius*
0 $2 $3 $4 $5 $6 $7 $8 $9 X,Y pos of 4 corners*
0 Add a 4 corners polygon primitive as box body*
4,1,4,$2,$3,$4,$5,$6,$7,$8,$9,$2,$3,0*
0 Add four circle primitives for the rounded corners*
1,1,$1+$1,$2,$3*
1,1,$1+$1,$4,$5*
1,1,$1+$1,$6,$7*
1,1,$1+$1,$8,$9*
0 Add four rect primitives between the rounded corners*
20,1,$1+$1,$2,$3,$4,$5,0*
20,1,$1+$1,$4,$5,$6,$7,0*
20,1,$1+$1,$6,$7,$8,$9,0*
20,1,$1+$1,$8,$9,$2,$3,0*%
G04 Aperture macros list end*
%ADD10C,0.010000*%
%ADD11RoundRect,0.140000X-0.170000X0.140000X-0.170000X-0.140000X0.170000X-0.140000X0.170000X0.140000X0*%
%ADD12C,0.700000*%
%ADD13C,4.400000*%
%ADD14RoundRect,0.150000X-0.825000X-0.150000X0.825000X-0.150000X0.825000X0.150000X-0.825000X0.150000X0*%
%ADD15R,2.410000X3.300000*%
%ADD16RoundRect,0.135000X-0.185000X0.135000X-0.185000X-0.135000X0.185000X-0.135000X0.185000X0.135000X0*%
%ADD17RoundRect,0.102000X-0.300000X-0.575000X0.300000X-0.575000X0.300000X0.575000X-0.300000X0.575000X0*%
%ADD18RoundRect,0.102000X-0.150000X-0.575000X0.150000X-0.575000X0.150000X0.575000X-0.150000X0.575000X0*%
%ADD19O,1.204000X2.004000*%
%ADD20O,1.204000X2.404000*%
%ADD21RoundRect,0.135000X0.185000X-0.135000X0.185000X0.135000X-0.185000X0.135000X-0.185000X-0.135000X0*%
%ADD22RoundRect,0.147500X-0.147500X-0.172500X0.147500X-0.172500X0.147500X0.172500X-0.147500X0.172500X0*%
%ADD23R,0.576580X0.351536*%
%ADD24R,0.351536X0.576580*%
%ADD25RoundRect,0.102000X-0.300000X0.300000X-0.300000X-0.300000X0.300000X-0.300000X0.300000X0.300000X0*%
%ADD26RoundRect,0.135000X0.135000X0.185000X-0.135000X0.185000X-0.135000X-0.185000X0.135000X-0.185000X0*%
%ADD27RoundRect,0.140000X0.140000X0.170000X-0.140000X0.170000X-0.140000X-0.170000X0.140000X-0.170000X0*%
%ADD28C,0.228600*%
%ADD29R,0.900000X1.700000*%
%ADD30R,0.850000X0.850000*%
%ADD31C,0.850000*%
%ADD32RoundRect,0.140000X0.170000X-0.140000X0.170000X0.140000X-0.170000X0.140000X-0.170000X-0.140000X0*%
G04 APERTURE END LIST*
D10*
%TO.C,L1*%
X220060000Y-123522000D02*
X219680000Y-123837000D01*
X219680000Y-124763000D01*
X220060000Y-125078000D01*
X220060000Y-125925000D01*
X219033600Y-125925000D01*
X218720000Y-125611400D01*
X218720000Y-122988600D01*
X219033600Y-122675000D01*
X220060000Y-122675000D01*
X220060000Y-123522000D01*
G36*
X220060000Y-123522000D02*
G01*
X219680000Y-123837000D01*
X219680000Y-124763000D01*
X220060000Y-125078000D01*
X220060000Y-125925000D01*
X219033600Y-125925000D01*
X218720000Y-125611400D01*
X218720000Y-122988600D01*
X219033600Y-122675000D01*
X220060000Y-122675000D01*
X220060000Y-123522000D01*
G37*
X222220000Y-122988600D02*
X222220000Y-125611400D01*
X221906400Y-125925000D01*
X220880000Y-125925000D01*
X220880000Y-125078000D01*
X221260000Y-124763000D01*
X221260000Y-123837000D01*
X220880000Y-123522000D01*
X220880000Y-122675000D01*
X221906400Y-122675000D01*
X222220000Y-122988600D01*
G36*
X222220000Y-122988600D02*
G01*
X222220000Y-125611400D01*
X221906400Y-125925000D01*
X220880000Y-125925000D01*
X220880000Y-125078000D01*
X221260000Y-124763000D01*
X221260000Y-123837000D01*
X220880000Y-123522000D01*
X220880000Y-122675000D01*
X221906400Y-122675000D01*
X222220000Y-122988600D01*
G37*
%TD*%
D11*
%TO.C,C11*%
X222970000Y-123910000D03*
X222970000Y-122950000D03*
%TD*%
D12*
%TO.C,H4*%
X216837100Y-139022500D03*
X217320374Y-137855774D03*
X217320374Y-140189226D03*
X218487100Y-137372500D03*
D13*
X218487100Y-139022500D03*
D12*
X218487100Y-140672500D03*
X219653826Y-137855774D03*
X219653826Y-140189226D03*
X220137100Y-139022500D03*
%TD*%
D14*
%TO.C,U5*%
X217725000Y-115195000D03*
X217725000Y-116465000D03*
X217725000Y-117735000D03*
X217725000Y-119005000D03*
X222675000Y-119005000D03*
X222675000Y-117735000D03*
X222675000Y-116465000D03*
X222675000Y-115195000D03*
D15*
X220200000Y-117100000D03*
%TD*%
D16*
%TO.C,R5*%
X218470000Y-120890000D03*
X218470000Y-121910000D03*
%TD*%
D11*
%TO.C,C7*%
X217270000Y-120920000D03*
X217270000Y-121880000D03*
%TD*%
D17*
%TO.C,J1*%
X226980000Y-129925000D03*
X227780000Y-129925000D03*
D18*
X228930000Y-129925000D03*
X229930000Y-129925000D03*
X230430000Y-129925000D03*
X231430000Y-129925000D03*
D17*
X233380000Y-129925000D03*
X232580000Y-129925000D03*
D18*
X231930000Y-129925000D03*
X230930000Y-129925000D03*
X229430000Y-129925000D03*
X228430000Y-129925000D03*
D19*
X225860000Y-130500000D03*
X234500000Y-130500000D03*
D20*
X225860000Y-134500000D03*
X234500000Y-134500000D03*
%TD*%
D21*
%TO.C,R3*%
X221430000Y-113090000D03*
X221430000Y-112070000D03*
%TD*%
D11*
%TO.C,C5*%
X232500000Y-111540000D03*
X232500000Y-112500000D03*
%TD*%
D22*
%TO.C,D1*%
X220595000Y-130700000D03*
X221565000Y-130700000D03*
%TD*%
D23*
%TO.C,U3*%
X231000000Y-113500000D03*
X231000000Y-112999999D03*
X231000000Y-112499999D03*
X231000000Y-111999998D03*
D24*
X230289699Y-111793699D03*
X229789700Y-111793699D03*
X229289701Y-111793699D03*
D23*
X228579400Y-111999998D03*
X228579400Y-112499999D03*
X228579400Y-112999999D03*
X228579400Y-113500000D03*
D24*
X229289701Y-113706299D03*
X229789700Y-113706299D03*
X230289699Y-113706299D03*
%TD*%
D21*
%TO.C,R4*%
X222470000Y-121910000D03*
X222470000Y-120890000D03*
%TD*%
D25*
%TO.C,U1*%
X225600000Y-124900000D03*
X225600000Y-123800000D03*
X225600000Y-122700000D03*
X225600000Y-121600000D03*
X225600000Y-120500000D03*
X225600000Y-119400000D03*
X225600000Y-118300000D03*
X225600000Y-117200000D03*
X225600000Y-116100000D03*
X226700000Y-124900000D03*
X226700000Y-123800000D03*
X226700000Y-122700000D03*
X226700000Y-121600000D03*
X226700000Y-120500000D03*
X226700000Y-119400000D03*
X226700000Y-118300000D03*
X226700000Y-117200000D03*
X226700000Y-116100000D03*
X227800000Y-124900000D03*
X227800000Y-123800000D03*
X227800000Y-121600000D03*
X227800000Y-120500000D03*
X227800000Y-119400000D03*
X227800000Y-117200000D03*
X227800000Y-116100000D03*
X228900000Y-124900000D03*
X228900000Y-123800000D03*
X228900000Y-122700000D03*
X228900000Y-118300000D03*
X228900000Y-117200000D03*
X228900000Y-116100000D03*
X230000000Y-124900000D03*
X230000000Y-123800000D03*
X230000000Y-122700000D03*
X230000000Y-121050000D03*
X230000000Y-119950000D03*
X230000000Y-118300000D03*
X230000000Y-117200000D03*
X230000000Y-116100000D03*
X231100000Y-124900000D03*
X231100000Y-123800000D03*
X231100000Y-122700000D03*
X231100000Y-121050000D03*
X231100000Y-119950000D03*
X231100000Y-118300000D03*
X231100000Y-117200000D03*
X231100000Y-116100000D03*
X232200000Y-124900000D03*
X232200000Y-123800000D03*
X232200000Y-122700000D03*
X232200000Y-121050000D03*
X232200000Y-119950000D03*
X232200000Y-118300000D03*
X232200000Y-117200000D03*
X232200000Y-116100000D03*
X233300000Y-124900000D03*
X233300000Y-123800000D03*
X233300000Y-122700000D03*
X233300000Y-118300000D03*
X233300000Y-117200000D03*
X233300000Y-116100000D03*
X234400000Y-124900000D03*
X234400000Y-123800000D03*
X234400000Y-122700000D03*
X234400000Y-121050000D03*
X234400000Y-119950000D03*
X234400000Y-118300000D03*
X234400000Y-117200000D03*
X234400000Y-116100000D03*
X235500000Y-124900000D03*
X235500000Y-123800000D03*
X235500000Y-122700000D03*
X235500000Y-120500000D03*
X235500000Y-118300000D03*
X235500000Y-117200000D03*
X235500000Y-116100000D03*
X237000000Y-124900000D03*
X237000000Y-116100000D03*
X238500000Y-124900000D03*
X238500000Y-123800000D03*
X238500000Y-117200000D03*
X238500000Y-116100000D03*
%TD*%
D26*
%TO.C,R2*%
X219010000Y-132000000D03*
X217990000Y-132000000D03*
%TD*%
D27*
%TO.C,C1*%
X223500000Y-113000000D03*
X222540000Y-113000000D03*
%TD*%
D28*
%TO.C,U4*%
X219869900Y-121600000D03*
X219869900Y-121200000D03*
X220269950Y-121600000D03*
X220269950Y-121200000D03*
X220670000Y-121600000D03*
X220670000Y-121200000D03*
X221070050Y-121600000D03*
X221070050Y-121200000D03*
%TD*%
D29*
%TO.C,SW1*%
X218300000Y-134500000D03*
X221700000Y-134500000D03*
%TD*%
D26*
%TO.C,R1*%
X219100000Y-130700000D03*
X218080000Y-130700000D03*
%TD*%
D30*
%TO.C,J5*%
X237750000Y-129750000D03*
D31*
X236750000Y-129750000D03*
%TD*%
D12*
%TO.C,H2*%
X235183274Y-111333274D03*
X235666548Y-110166548D03*
X235666548Y-112500000D03*
X236833274Y-109683274D03*
D13*
X236833274Y-111333274D03*
D12*
X236833274Y-112983274D03*
X238000000Y-110166548D03*
X238000000Y-112500000D03*
X238483274Y-111333274D03*
%TD*%
D11*
%TO.C,C10*%
X223670000Y-120920000D03*
X223670000Y-121880000D03*
%TD*%
D30*
%TO.C,J4*%
X237750000Y-131750000D03*
D31*
X236750000Y-131750000D03*
%TD*%
D29*
%TO.C,SW2*%
X218300000Y-128000000D03*
X221700000Y-128000000D03*
%TD*%
D11*
%TO.C,C4*%
X223200000Y-127040000D03*
X223200000Y-128000000D03*
%TD*%
D32*
%TO.C,C3*%
X223500000Y-134960000D03*
X223500000Y-134000000D03*
%TD*%
D12*
%TO.C,H1*%
X235350000Y-138850000D03*
X235833274Y-137683274D03*
X235833274Y-140016726D03*
X237000000Y-137200000D03*
D13*
X237000000Y-138850000D03*
D12*
X237000000Y-140500000D03*
X238166726Y-137683274D03*
X238166726Y-140016726D03*
X238650000Y-138850000D03*
%TD*%
%TO.C,H3*%
X216860000Y-111110000D03*
X217343274Y-109943274D03*
X217343274Y-112276726D03*
X218510000Y-109460000D03*
D13*
X218510000Y-111110000D03*
D12*
X218510000Y-112760000D03*
X219676726Y-109943274D03*
X219676726Y-112276726D03*
X220160000Y-111110000D03*
%TD*%
D22*
%TO.C,D2*%
X220515000Y-132000000D03*
X221485000Y-132000000D03*
%TD*%
D11*
%TO.C,C8*%
X217970000Y-122950000D03*
X217970000Y-123910000D03*
%TD*%
D30*
%TO.C,J6*%
X237750000Y-127750000D03*
D31*
X236750000Y-127750000D03*
%TD*%
M02*
