%TF.GenerationSoftware,KiCad,Pcbnew,9.0.5*%
%TF.CreationDate,2025-10-17T10:40:51+05:30*%
%TF.ProjectId,WVM,57564d2e-6b69-4636-9164-5f7063625858,rev?*%
%TF.SameCoordinates,Original*%
%TF.FileFunction,Legend,Bot*%
%TF.FilePolarity,Positive*%
%FSLAX46Y46*%
G04 Gerber Fmt 4.6, Leading zero omitted, Abs format (unit mm)*
G04 Created by KiCad (PCBNEW 9.0.5) date 2025-10-17 10:40:51*
%MOMM*%
%LPD*%
G01*
G04 APERTURE LIST*
%ADD10C,0.100000*%
G04 APERTURE END LIST*
D10*
G36*
X230033269Y-132264846D02*
G01*
X230029324Y-132222318D01*
X230017710Y-132183126D01*
X229998358Y-132147946D01*
X229971551Y-132118829D01*
X229936367Y-132094259D01*
X229893403Y-132075409D01*
X229844732Y-132064237D01*
X229780169Y-132060049D01*
X229694043Y-132063383D01*
X229622999Y-132072948D01*
X229622999Y-132207376D01*
X229638993Y-132207376D01*
X229683366Y-132191739D01*
X229708139Y-132186515D01*
X229742424Y-132184515D01*
X229786068Y-132188100D01*
X229814143Y-132197097D01*
X229835901Y-132212410D01*
X229849903Y-132232103D01*
X229857825Y-132254950D01*
X229861413Y-132280365D01*
X229862763Y-132347520D01*
X229862763Y-132613796D01*
X229711347Y-132613796D01*
X229711347Y-132733182D01*
X230033269Y-132733182D01*
X230033269Y-132264846D01*
G37*
G36*
X230710410Y-132072750D02*
G01*
X230191352Y-132072750D01*
X230191352Y-132182451D01*
X230310539Y-132273380D01*
X230366830Y-132320354D01*
X230406230Y-132356370D01*
X230454734Y-132407717D01*
X230482593Y-132446386D01*
X230495500Y-132472702D01*
X230502868Y-132497870D01*
X230505256Y-132522312D01*
X230501780Y-132550998D01*
X230492033Y-132573708D01*
X230476163Y-132591848D01*
X230455389Y-132604807D01*
X230428109Y-132613233D01*
X230392458Y-132616336D01*
X230351424Y-132612383D01*
X230306530Y-132599865D01*
X230262913Y-132581073D01*
X230222865Y-132557913D01*
X230208656Y-132557913D01*
X230208656Y-132704645D01*
X230244150Y-132717328D01*
X230301649Y-132732111D01*
X230363373Y-132742457D01*
X230424884Y-132745883D01*
X230488042Y-132742045D01*
X230539395Y-132731461D01*
X230580977Y-132715193D01*
X230614481Y-132693810D01*
X230642726Y-132665503D01*
X230662873Y-132632263D01*
X230675366Y-132593107D01*
X230679770Y-132546562D01*
X230676310Y-132505736D01*
X230665955Y-132466343D01*
X230648455Y-132427851D01*
X230625404Y-132392008D01*
X230593972Y-132353446D01*
X230552764Y-132311799D01*
X230511904Y-132275815D01*
X230471480Y-132243375D01*
X230413335Y-132199756D01*
X230710410Y-132199756D01*
X230710410Y-132072750D01*
G37*
M02*
