M48
; DRILL file {KiCad 9.0.5} date 2025-10-17T10:42:23+0530
; FORMAT={-:-/ absolute / metric / decimal}
; #@! TF.CreationDate,2025-10-17T10:42:23+05:30
; #@! TF.GenerationSoftware,Kicad,Pcbnew,9.0.5
; #@! TF.FileFunction,Plated,1,2,PTH
FMAT,2
METRIC
; #@! TA.AperFunction,Plated,PTH,ViaDrill
T1C0.100
; #@! TA.AperFunction,Plated,PTH,ViaDrill
T2C0.200
; #@! TA.AperFunction,Plated,PTH,ComponentDrill
T3C0.200
; #@! TA.AperFunction,Plated,PTH,ViaDrill
T4C0.300
; #@! TA.AperFunction,Plated,PTH,ComponentDrill
T5C0.400
; #@! TA.AperFunction,Plated,PTH,ComponentDrill
T6C0.500
; #@! TA.AperFunction,Plated,PTH,ComponentDrill
T7C0.600
; #@! TA.AperFunction,Plated,PTH,ComponentDrill
T8C2.200
%
G90
G05
T1
X220.27Y-121.2
X220.67Y-121.2
X221.28Y-114.03
X228.579Y-112.5
X229.29Y-111.794
X229.29Y-113.706
X229.75Y-113.66
X229.79Y-111.794
X230.242Y-111.258
X230.29Y-113.706
X231.0Y-112.5
X231.0Y-113.0
X231.0Y-113.5
T2
X237.75Y-126.25
X238.5Y-116.1
T3
X219.5Y-115.9
X219.5Y-117.1
X219.5Y-118.3
X220.9Y-115.9
X220.9Y-117.1
X220.9Y-118.3
T4
X217.0Y-126.25
X217.27Y-121.88
X217.725Y-115.195
X217.725Y-116.465
X217.725Y-117.735
X217.97Y-123.91
X217.99Y-132.0
X218.08Y-130.7
X218.3Y-128.0
X218.3Y-134.5
X218.47Y-120.89
X218.47Y-121.91
X221.43Y-112.07
X221.43Y-113.09
X222.41Y-121.91
X222.47Y-120.89
X222.54Y-113.0
X222.675Y-116.465
X222.675Y-117.735
X222.97Y-122.95
X222.97Y-123.91
X223.2Y-127.04
X223.2Y-128.0
X223.5Y-134.0
X223.5Y-134.96
X223.67Y-121.88
X225.25Y-128.25
X225.6Y-116.1
X225.6Y-124.9
X225.86Y-130.5
X226.7Y-117.2
X226.7Y-122.7
X226.7Y-123.8
X226.7Y-124.9
X226.98Y-129.925
X227.8Y-123.8
X227.8Y-124.9
X230.0Y-117.2
X230.0Y-118.3
X230.0Y-119.95
X230.0Y-121.05
X231.1Y-118.3
X231.1Y-119.95
X231.1Y-121.05
X231.93Y-134.343
X232.2Y-116.1
X232.2Y-117.2
X232.5Y-111.54
X232.5Y-112.5
X233.3Y-117.2
X234.4Y-122.7
X235.5Y-117.2
X235.5Y-118.3
X235.5Y-120.5
X235.5Y-122.7
X235.5Y-123.8
X236.75Y-127.75
X236.75Y-129.75
X236.75Y-131.75
X237.0Y-116.1
X237.0Y-124.9
X237.75Y-127.75
X237.75Y-129.75
X237.75Y-131.75
X238.5Y-117.2
X238.5Y-123.8
X238.5Y-124.9
T5
X216.837Y-139.022
X216.86Y-111.11
X217.32Y-137.856
X217.32Y-140.189
X217.343Y-109.943
X217.343Y-112.277
X218.487Y-137.373
X218.487Y-140.672
X218.51Y-109.46
X218.51Y-112.76
X219.654Y-137.856
X219.654Y-140.189
X219.677Y-109.943
X219.677Y-112.277
X220.137Y-139.022
X220.16Y-111.11
X235.183Y-111.333
X235.35Y-138.85
X235.667Y-110.167
X235.667Y-112.5
X235.833Y-137.683
X235.833Y-140.017
X236.833Y-109.683
X236.833Y-112.983
X237.0Y-137.2
X237.0Y-140.5
X238.0Y-110.167
X238.0Y-112.5
X238.167Y-137.683
X238.167Y-140.017
X238.483Y-111.333
X238.65Y-138.85
T6
X236.75Y-127.75
X236.75Y-129.75
X236.75Y-131.75
X237.75Y-127.75
X237.75Y-129.75
X237.75Y-131.75
T8
X218.487Y-139.022
X218.51Y-111.11
X236.833Y-111.333
X237.0Y-138.85
T7
G00X225.86Y-130.1
M15
G01X225.86Y-130.9
M16
G05
G00X225.86Y-133.9
M15
G01X225.86Y-135.1
M16
G05
G00X234.5Y-130.1
M15
G01X234.5Y-130.9
M16
G05
G00X234.5Y-133.9
M15
G01X234.5Y-135.1
M16
G05
M30
